<?xml version="1.0" encoding="utf-8"?>
<!-- Generator: Adobe Illustrator 16.0.0, SVG Export Plug-In . SVG Version: 6.00 Build 0)  -->
<!DOCTYPE svg PUBLIC "-//W3C//DTD SVG 1.1//EN" "http://www.w3.org/Graphics/SVG/1.1/DTD/svg11.dtd">
<svg version="1.1" id="Layer_1" xmlns="http://www.w3.org/2000/svg" xmlns:xlink="http://www.w3.org/1999/xlink" x="0px" y="0px"
	 width="960px" height="560px" viewBox="0 0 960 560" enable-background="new 0 0 960 560" xml:space="preserve">
<path d="M-519,822c0-401.951,0-803.903,0-1205.927c666.667,0,1333.333,0,2000,0c0,315.67,0,631.298,0,946.927
	c-1.944,0.166-4.305-0.254-5.675,0.72c-0.809,0.574-0.77,4.247,0.14,4.985c3.077,2.498,3.854-1.338,5.535-2.705
	c0,85.333,0,170.667,0,256c-54.138,0-108.275,0-162.624,0c-0.12-1.475-0.146-2.598-0.313-3.698c-0.763-4.997-5.027-6.271-8.785-7.88
	c-0.779-0.334-2.674,0.45-3.2,1.269c-2.427,3.769-0.021,6.544,2.318,9.263c0.125,0.145-0.091,0.584-0.152,0.907
	c-137.48,0-274.954,0-412.808,0c2.206-5.266-0.078-8.909-4.291-11.275c-1.747-0.981-4.99-1.609-6.283-0.663
	c-4.277,3.13-3.127,7.629-1.229,11.72c-446.19,0-892.033,0-1338.112,0c3.953-6.027,3.121-13.85-1.537-17.037
	c-3.765-2.576-8.392-0.974-12.7,4.397c-3.68,4.588-3.135,7.927,2.062,12.63c-0.119,0.075-0.237,0.215-0.356,0.216
	C-484.34,821.905-501.67,821.952-519,822z M282.8-335.14c0.368-6.326-6.908-14.181-13.158-13.718
	c-1.826,0.135-4.185,1.462-5.183,2.978c-4.984,7.579-3.574,13.17,4.111,18.094C276.214-322.889,282.27-326.019,282.8-335.14z
	 M311.418,33.187c6.409-0.903,12.935-6.427,13.969-12.294c0.622-3.533-0.477-5.959-3.884-7.647
	c-7.516-3.725-13.027-2.566-17.114,4.834c-1.514,2.741-2.73,7.148-1.531,9.485C304.214,30.207,308.439,31.377,311.418,33.187z
	 M-113.561,344.668c-6.849,1.046-14.077,7.302-14.109,13.368c-0.011,2.033,1.473,4.876,3.166,5.977
	c7.587,4.936,13.288,3.627,17.856-4.225c1.504-2.585,2.897-6.902,1.738-8.962C-106.481,348.035-110.558,346.654-113.561,344.668z
	 M548.441,144.739c-6.763,0.979-14.021,7.323-14.122,13.412c-0.033,1.941,1.232,4.661,2.793,5.742
	c7.44,5.156,13.266,4.073,18.026-3.615c1.651-2.668,3.14-7.133,1.991-9.404C555.716,148.079,551.466,146.719,548.441,144.739z
	 M892.823,241.45c-1.363,5.112,6.017,12.842,11.077,13.608c3.425,0.518,6.026-0.284,7.78-3.781
	c3.848-7.67,2.396-12.985-5.247-17.534C898.79,229.193,893.106,232.412,892.823,241.45z M835.851-66.749
	c6.448-0.838,13.317-6.425,14.179-12.145c0.473-3.14-0.055-5.697-3.399-7.455c-7.837-4.118-12.985-3.119-17.52,4.714
	c-1.494,2.581-2.786,6.844-1.643,8.99C828.901-69.954,832.938-68.651,835.851-66.749z M134.384-238.238
	c1.229,6.761,8.253,14.111,14.114,13.679c1.938-0.143,4.44-1.671,5.484-3.324c4.681-7.417,3.897-12.014-3.38-16.964
	c-2.735-1.86-7.444-3.626-9.827-2.477C137.861-245.92,136.447-241.407,134.384-238.238z M-295.363,602.72
	c0.994,6.806,7.367,14.173,13.369,14.066c2.129-0.038,5.063-1.727,6.18-3.55c4.647-7.586,3.323-12.929-4.377-17.381
	c-2.583-1.493-6.871-2.896-8.929-1.745C-291.928,595.68-293.348,599.731-295.363,602.72z M1001.323,89.072
	c-6.513,1.125-13.605,7.646-13.367,13.495c0.088,2.157,1.723,5.063,3.543,6.195c7.382,4.587,10.881,3.813,17.137-4.372
	c1.804-2.36,2.942-7.219,1.701-9.416C1008.768,92.196,1004.453,90.969,1001.323,89.072z M544.47,789.091
	c6.297-1.261,13.074-7.598,13.584-13.145c0.286-3.104-0.699-5.224-3.688-6.817c-7.699-4.104-10.867-3.243-16.872,4.293
	c-1.863,2.337-3.258,7.162-2.073,9.297C537.032,785.622,541.326,787.037,544.47,789.091z M-66.114,674.324
	c2.584-1.846,5.582-3.324,7.636-5.641c2.011-2.266,2.964-5.442,4.56-8.113c2.017-3.377,0.516-5.217-2.551-6.511
	c-6.438-2.716-16.604,3.923-17.637,11.511C-74.831,670.893-72.119,673.795-66.114,674.324z M454.137-123.591
	c-0.052,5.179,3.272,9.079,7.771,9.116c4.731,0.039,11.243-5.485,11.127-9.439c-0.116-3.939-7.297-10.734-11.242-10.637
	C457.023-134.434,454.204-130.398,454.137-123.591z M-265.042,193.229c-5.307-0.075-9.096,3.085-9.193,7.667
	c-0.102,4.796,5.278,11.309,9.305,11.263c3.93-0.045,10.823-7.143,10.829-11.151C-254.094,196.389-258.408,193.322-265.042,193.229z
	 M567.303,496.085c-5.165-0.017-9.175,3.348-9.169,7.694c0.005,4.421,5.788,11.261,9.456,11.184
	c3.951-0.083,10.61-7.178,10.566-11.257C578.105,498.917,574.103,496.106,567.303,496.085z M538.975,551.641
	c5.516,0.128,9.222-2.779,9.452-7.416c0.229-4.626-5.277-11.369-9.266-11.346c-3.984,0.024-10.846,7.156-10.764,11.188
	C528.492,548.671,532.428,551.488,538.975,551.641z M1415.102-98.274c0.012-4.841-3.957-7.645-10.838-7.655
	c-5.184-0.008-9.229,3.444-9.098,7.766c0.13,4.284,5.686,10.964,9.176,11.034C1408.185-87.052,1415.091-94.206,1415.102-98.274z
	 M752.897-241.024c-0.183,4.378,4.927,11.028,8.691,11.311c3.898,0.292,10.985-6.351,11.296-10.589
	c0.326-4.452-3.538-7.654-9.546-7.91C756.959-248.485,753.099-245.827,752.897-241.024z M1329.086,15.923
	c5.323,0.029,9.119-3.2,9.054-7.701c-0.064-4.458-5.34-10.979-8.983-11.103c-3.711-0.128-10.869,7.092-10.958,11.052
	C1318.092,12.87,1322.328,15.887,1329.086,15.923z M-337.469,354.532c5.483,0.137,9.181-2.689,9.497-7.257
	c0.32-4.625-4.932-11.306-9.009-11.46c-3.974-0.151-10.827,6.533-11.04,10.767C-348.258,351.289-344.176,354.364-337.469,354.532z
	 M1416.527,421.778c-0.145,5.61,2.616,9.157,7.298,9.377c4.828,0.226,11.352-5.029,11.312-9.114
	c-0.038-3.998-7.073-10.829-11.095-10.771C1419.516,411.334,1416.695,415.278,1416.527,421.778z M-310.479,792.184
	c-4.773,0.017-10.456,4.508-10.459,8.268c-0.004,4.295,3.14,9.163,5.989,9.275c4.177,0.164,9.888-6.335,9.674-11.598
	C-305.396,795.129-306.459,792.147-310.479,792.184z M153.367,617.083c-4.92,0.146-10.422,4.745-10.206,8.53
	c0.277,4.863,3.21,9.092,6.278,9.052c4.401-0.059,9.869-6.639,9.462-11.895C158.659,619.654,157.372,616.869,153.367,617.083z
	 M486.458,176.362c0.073-4.814-3.081-9.495-6.326-9.389c-4.511,0.147-9.562,6.498-9.278,11.968c0.158,3.064,1.374,5.493,5.065,5.553
	C480.77,184.573,486.399,180.262,486.458,176.362z M-38.905-268.331c0.01-4.904-4.432-10.466-8.257-10.341
	c-4.708,0.155-9.041,3.059-9.109,6.105c-0.1,4.469,6.085,9.763,11.64,9.537C-41.539-263.155-38.61-264.194-38.905-268.331z
	 M29.806,702.99c-4.597,0.098-8.995,3.067-9.03,6.098c-0.052,4.455,6.28,9.934,11.658,9.542c2.943-0.215,5.876-1.222,5.696-5.408
	C37.918,708.256,33.746,702.906,29.806,702.99z M-212.779,421.215c-0.042-4.644-2.98-9.145-6.001-9.191
	c-4.239-0.066-9.668,6.414-9.504,11.756c0.098,3.188,1.241,5.91,5.281,5.811C-217.96,429.465-212.744,425.227-212.779,421.215z
	 M-439.216,412.298c0.101,2.739,4.218,5.783,7.613,5.628c3.336-0.152,8.587-5.8,8.604-9.254c0.014-2.946-3.851-5.649-7.737-5.412
	C-434.799,403.508-439.361,408.369-439.216,412.298z M564.31,808.412c0.017,4.373,4.751,9.328,8.604,9.445
	c2.8,0.084,5.921-3.794,5.963-7.411c0.039-3.302-5.533-8.732-9.135-8.632C565.222,801.941,564.996,805.631,564.31,808.412z
	 M505.95-299.486c0.02,3.504,5.35,8.749,9.103,8.576c4.421-0.203,5.151-3.618,5.236-7.101c0.102-4.158-4.556-8.9-8.524-8.957
	C508.936-307.008,505.931-303.141,505.95-299.486z M734.694-91.929c4.753,0.051,9.624-4.419,9.801-8.377
	c0.137-3.039-3.359-5.89-7.282-5.94c-3.445-0.044-9.088,5.256-8.92,8.859C728.493-93.103,731.902-92.333,734.694-91.929z
	 M1297.564,444.106c3.548-0.018,8.825-5.263,8.646-8.975c-0.21-4.379-3.549-5.174-7.062-5.248c-4.121-0.087-8.889,4.489-9.011,8.431
	C1290.048,441.216,1293.778,444.125,1297.564,444.106z M1293.497,694.143c3.368-0.125,4.061-3.682,4.605-6.83
	c0.626-3.609-4.969-9.371-8.849-9.197c-3.989,0.18-5.031,3.28-5.268,6.608C1283.674,689.117,1288.153,694.006,1293.497,694.143z
	 M-380.994,252.267c3.666,0.056,8.866-4.926,9.038-8.659c0.159-3.423-2.746-5.968-5.906-4.248c-2.78,1.513-5.043,4.479-6.78,7.271
	C-386.614,249.803-384.814,252.208-380.994,252.267z M-240.325,90.236c-1.079-0.626-2.742-2.296-4.576-2.512
	c-3.788-0.445-9.657,5.672-8.94,9.592c0.266,1.456,3.14,3.252,4.967,3.431C-245.441,101.081-240.152,94.997-240.325,90.236z
	 M743.019,359.971c-0.026-5.125-6.759-11.14-10.321-10.236c-0.914,0.231-2.314,1.611-2.212,2.261
	c0.411,2.585,0.634,5.743,2.242,7.448c1.783,1.891,4.931,2.781,7.641,3.333C741.185,362.942,742.526,360.523,743.019,359.971z
	 M85.073,430.495c4.502-0.248,6.639-3.31,7.91-7.057c0.499-1.471,0.474-4.562,0.151-4.638c-2.204-0.519-5.011-1.289-6.752-0.354
	c-3.277,1.761-6.554,4.46-5.545,8.941c0.283,1.256,2.433,2.097,3.74,3.108C84.681,430.576,84.899,430.507,85.073,430.495z
	 M1206.245,74.427c5.348,0.203,10.98-5.195,10.623-9.445c-0.113-1.347-2.611-3.204-4.285-3.556c-3.255-0.684-9.099,5.041-8.75,8.575
	C1204.01,71.783,1205.662,73.419,1206.245,74.427z M13.961-153.021c-0.29,3.598,1.391,6.225,4.908,5.943
	c3.107-0.249,7.698-1.483,6.858-5.44c-0.595-2.802-4.116-6.333-6.919-6.977C15.273-160.308,13.89-156.527,13.961-153.021z
	 M180.824,235.539c4.665,0.195,7.14-1.867,6.732-5.152c-0.37-2.984-1.52-6.712-5.807-6.879c-2.857-0.112-7.162,4.576-6.842,7.385
	C175.383,235.052,178.624,235.37,180.824,235.539z M-53.901,101.336c-0.044,3.59,1.785,6.143,5.276,5.749
	c3.089-0.349,6.78-1.374,6.909-5.765c0.086-2.917-4.566-7.43-7.332-7.012C-52.991,94.904-53.787,97.946-53.901,101.336z
	 M889.021,110.478c-0.163,3.661,1.749,6.079,5.19,5.732c3.107-0.312,6.735-1.382,7.024-5.629c0.193-2.84-4.468-7.189-7.332-6.914
	C889.783,104.063,889.236,107.199,889.021,110.478z M339.834,480.367c0.186-4.384-1.595-6.532-5.152-6.724
	c-3.152-0.169-7.871,3.882-6.747,5.82c1.576,2.719,4.223,5.982,6.951,6.59C338.801,486.926,339.621,482.942,339.834,480.367z
	 M-477.129-280.065c-0.355,3.538,1.3,6.137,4.816,5.907c3.16-0.207,7.606-1.698,6.871-5.434c-0.546-2.774-4.101-6.289-6.909-6.949
	C-475.941-287.384-477.24-283.611-477.129-280.065z M742.396,442.248c0.312-3.9-1.337-6.549-4.885-6.273
	c-3.147,0.244-7.573,1.663-6.78,5.569c0.548,2.698,3.982,6.107,6.705,6.75C741.154,449.171,742.412,445.44,742.396,442.248z
	 M-445.301-327.889c-0.423,3.083,1.443,6.03,4.673,5.52c2.683-0.424,4.959-3.421,7.415-5.279c-2.342-2.448-4.317-6.252-7.118-7.011
	C-444.081-335.673-445.168-331.799-445.301-327.889z M1141.431,624.758c0.249-2.716-1.433-5.302-4.963-5.025
	c-3.153,0.248-7.514,1.718-6.733,5.568c0.535,2.643,3.99,5.923,6.717,6.601C1140.423,632.89,1141.222,628.979,1141.431,624.758z
	 M-25.21,383.332c-0.071-0.685-0.143-1.369-0.215-2.054c-1.804-0.999-3.509-2.493-5.437-2.882c-2.861-0.575-7.387,3.348-6.595,5.916
	c0.568,1.841,3.721,4.59,4.819,4.225C-29.888,387.624-27.651,385.169-25.21,383.332z M840.732-31.004
	c-4.681-0.157-8.813,3.18-8.068,5.968c0.452,1.689,2.778,3.456,4.629,4.055c2.555,0.825,7.094-3.314,6.544-6.041
	C843.48-28.785,841.401-30.2,840.732-31.004z M431.149,571.551c3.278,2.423,5.434,4.546,8.023,5.552
	c0.634,0.246,3.417-2.978,3.911-4.935c0.673-2.664-3.983-7.003-6.458-6.095C434.865,566.72,433.675,568.919,431.149,571.551z
	 M1447.251,468.01c-4.638-0.176-8.798,3.104-8.027,5.85c0.489,1.741,3.979,4.379,4.775,3.973c2.495-1.274,4.654-3.603,6.222-5.996
	C1450.562,471.313,1447.912,468.831,1447.251,468.01z M738.826,189.879c-4.715-0.154-8.728,3.031-7.977,5.854
	c0.468,1.762,4.012,4.478,4.607,4.124c2.537-1.506,4.729-3.831,6.428-6.286C742.18,193.145,739.485,190.65,738.826,189.879z
	 M1066.122,308.88c-0.386,4.629,2.723,8.723,5.708,8.183c1.684-0.305,3.629-2.477,4.306-4.247c0.959-2.511-2.918-7.112-5.78-6.75
	C1068.569,306.291,1067.004,308.254,1066.122,308.88z M-243.138-261.483c1.834-2.876,3.563-4.347,3.5-5.736
	c-0.152-3.297-1.687-6.574-5.622-6.084c-1.969,0.245-3.686,2.517-5.517,3.873C-248.558-267.122-246.338-264.812-243.138-261.483z
	 M797.966-309.494c0.025,4.654,3.525,8.511,6.298,7.588c1.65-0.55,3.298-2.939,3.761-4.797c0.658-2.644-3.726-6.973-6.284-6.196
	C799.988-312.367,798.726-310.223,797.966-309.494z M-225.804,205.352c0.236-4.171-3.389-7.552-7.146-7.303
	c-1.417,0.095-3.999,2.761-3.869,2.985c1.437,2.468,2.899,5.449,5.211,6.672C-230.307,208.395-227.412,206.067-225.804,205.352z
	 M654.79,551.26c3.292,2.525,5.383,4.724,7.94,5.706c0.705,0.271,4.334-4.105,4.002-4.604c-1.657-2.488-4.054-4.596-6.565-6.276
	C659.816,545.852,657.39,548.721,654.79,551.26z M-3.51,187.543c-4.513,0.92-7.732,2.178-7.283,6.065
	c0.224,1.932,2.218,4.562,4.004,5.19c2.482,0.873,6.238-3.983,5.761-7.357C-1.24,189.939-2.783,188.625-3.51,187.543z
	 M891.688,344.479c-0.69-0.125-1.38-0.249-2.07-0.374c-1.852,2.154-4.444,4.068-5.251,6.561c-0.422,1.302,1.916,4.511,3.687,5.266
	c2.484,1.059,6.149-3.309,5.908-6.988C893.861,347.413,892.484,345.965,891.688,344.479z M-163.602,508.574
	c-0.8-0.57-2.203-2.405-3.584-2.39c-3.338,0.039-6.488,1.774-6.289,5.493c0.102,1.903,2.106,4.641,3.881,5.3
	C-166.941,517.962-163.608,513.554-163.602,508.574z M49.419,193.542c1.062,1.122,2.334,3.463,4.231,4.21
	c2.226,0.875,6.449-4.133,5.959-7.258c-0.223-1.419-2.227-3.55-3.513-3.617C52.696,186.7,50.129,188.479,49.419,193.542z
	 M-506.293-288.806c2.024-2.824,4.173-4.882,3.82-5.494c-1.412-2.442-3.297-4.984-5.667-6.302c-0.859-0.478-3.568,2.369-5.433,3.699
	C-511.465-294.559-509.358-292.214-506.293-288.806z M563.806-266.108c0.042-3.857-4.289-7.645-7.49-7.131
	c-1.389,0.223-3.737,2.949-3.505,3.38c1.282,2.375,2.853,5.282,5.077,6.222C559.381-263.005,562.125-265.334,563.806-266.108z
	 M1403.799,540.311c2.827-3.265,5.552-5.103,6.02-7.4c0.323-1.591-2.445-5.432-3.867-5.448c-3.983-0.049-5.089,3.858-5.601,7.093
	C1400.152,535.811,1401.964,537.384,1403.799,540.311z M949.43,640.037c2.77-3.33,5.432-5.238,5.926-7.601
	c0.309-1.472-2.642-5.165-4.162-5.184c-4.087-0.049-5.016,3.913-5.331,7.185C945.736,635.741,947.562,637.233,949.43,640.037z
	 M378.334-371.637c-3.164-2.773-4.987-5.523-7.275-5.989c-1.633-0.332-4.812,2.002-5.63,3.875c-0.977,2.24,4.03,6.099,7.354,5.661
	C374.279-368.286,375.599-369.822,378.334-371.637z M-138.443-280.26c-1.28,2.809-2.76,4.831-2.344,5.359
	c1.709,2.17,3.996,3.887,6.07,5.77c0.924-1.128,2.853-2.897,2.608-3.282C-133.663-274.854-135.697-276.988-138.443-280.26z
	 M421.701-154.301c2.254-2.771,4.179-4.77,5.527-7.101c0.278-0.48-1.391-2.874-2.518-3.217c-2.36-0.718-6.684,3.586-6.374,6.334
	C418.456-157.225,419.932-156.317,421.701-154.301z M-424.667,455.807c-2.597-1.439-4.572-3.007-4.969-2.677
	c-2.247,1.871-4.117,4.196-6.115,6.366c1.232,0.825,3.034,2.63,3.598,2.303C-429.789,460.429-427.797,458.419-424.667,455.807z
	 M284.596,599.327c1.3-2.508,2.725-4.333,2.387-4.76c-1.787-2.255-4.019-4.157-6.097-6.182c-0.935,1.124-2.876,2.914-2.643,3.267
	C279.845,594.075,281.901,596.197,284.596,599.327z M42.748,522.562c-2.538-1.797-4.48-3.562-4.775-3.319
	c-2.244,1.843-4.192,4.056-6.063,6.294c-0.059,0.07,2.198,2.596,2.554,2.409C36.981,526.627,39.285,524.897,42.748,522.562z
	 M951.617-354.228c-0.333-0.853-0.667-1.706-1.001-2.559c-2.228-1.682-4.386-3.482-6.779-4.88c-0.268-0.156-2.794,2.821-2.714,2.907
	c2,2.169,4.047,4.392,6.483,5.999C948.313-352.294,950.246-353.688,951.617-354.228z M267.668-294.843
	c-3.378-2.224-5.752-3.886-8.286-5.249c-0.186-0.1-2.394,2.701-2.212,2.914c1.871,2.189,3.971,4.214,6.243,5.981
	C263.629-291.028,265.442-292.911,267.668-294.843z M778.627-114.132c-2.52-1.833-4.428-3.613-4.727-3.375
	c-2.254,1.797-4.219,3.968-6.107,6.165c-0.062,0.072,2.111,2.589,2.464,2.412C772.79-110.2,775.122-111.873,778.627-114.132z
	 M775.431,193.092c2.464-3.51,4.239-5.811,5.632-8.323c0.166-0.3-2.475-2.646-2.602-2.544c-2.264,1.831-4.459,3.796-6.315,6.026
	C771.903,188.543,773.607,190.453,775.431,193.092z M1017.848,579.844c1.182-2.747,2.467-4.554,2.081-5.044
	c-1.697-2.153-3.878-3.926-5.882-5.837c-0.966,1.068-2.929,2.825-2.741,3.095C1012.959,574.447,1014.993,576.572,1017.848,579.844z
	 M626.244,33.741c2.463-3.432,4.252-5.715,5.684-8.203c0.162-0.282-2.371-2.593-2.498-2.493c-2.258,1.776-4.462,3.674-6.308,5.857
	C622.862,29.21,624.543,31.157,626.244,33.741z M1076.016,728.022c-3.976-2.273-7.287-1.48-8.696,2.198
	c-0.482,1.26,0.253,4.316,0.929,4.479C1073.424,735.94,1074.34,731.721,1076.016,728.022z M1352.097,761.937
	c-2.323,3.935-1.634,7.12,2.066,8.632c1.257,0.514,4.339-0.139,4.515-0.806C1360.044,764.596,1355.845,763.607,1352.097,761.937z
	 M1294.111,339.262c-1.568,2.58-3.193,4.586-2.913,4.901c1.942,2.19,4.28,4.03,6.492,5.982c0.769-1.089,2.436-2.688,2.155-3.181
	C1298.491,344.582,1296.613,342.498,1294.111,339.262z M-234.152,426.318c-2.591-1.247-4.396-2.594-4.83-2.244
	c-2.224,1.797-4.096,4.03-6.09,6.111c1.114,0.92,2.898,2.83,3.234,2.603C-239.439,431.163-237.335,429.103-234.152,426.318z
	 M-64.697,271.597c2.347-2.345,5.175-4.325,4.885-5.044c-0.803-1.984-2.909-3.443-4.5-5.109c-1.165,1.544-3.009,2.979-3.279,4.667
	C-67.806,267.455-66.1,269.106-64.697,271.597z M1336.232-322.645c-1.981,2.183-4.256,3.729-4.025,4.637
	c0.472,1.856,2.292,3.369,3.556,5.023c1.566-1.475,3.671-2.718,4.448-4.53C1340.549-318.301,1338.158-320.26,1336.232-322.645z
	 M-439.491,762.485c-2.198-2.135-3.557-4.487-4.844-4.448c-1.661,0.051-3.265,2.014-4.893,3.152c1.504,1.683,2.79,3.731,4.64,4.836
	C-443.999,766.378-441.912,764.225-439.491,762.485z M539.901-349.063c-2.841-2.174-4.42-4.06-6.339-4.517
	c-0.772-0.184-3.207,2.768-3.2,4.286c0.006,1.384,2.22,3.776,3.587,3.869C535.495-345.32,537.181-347.283,539.901-349.063z
	 M462.904,382.718c-1.507,2.611-3.149,4.172-3.013,5.556c0.163,1.651,1.852,3.151,2.879,4.717c1.671-1.304,4.633-2.562,4.682-3.923
	C467.512,387.393,465.14,385.633,462.904,382.718z M807.639,658.585c1.944-2.183,4.259-3.809,4.004-4.697
	c-0.532-1.854-2.422-3.317-3.753-4.942c-1.571,1.495-3.673,2.764-4.456,4.596C803.111,654.295,805.628,656.262,807.639,658.585z
	 M-378.799,450.794c1.955-2.298,4.195-3.919,3.937-4.839c-0.526-1.878-2.397-3.38-3.715-5.036c-1.531,1.545-3.629,2.874-4.336,4.732
	C-383.235,446.496-380.805,448.389-378.799,450.794z M757.625,400.039c-0.017-0.604-0.033-1.209-0.051-1.814
	c-1.513-0.779-3.138-2.336-4.509-2.138c-1.649,0.238-3.084,1.97-4.611,3.056c1.207,1.59,2.655,4.626,3.572,4.474
	C754.035,403.281,755.775,401.33,757.625,400.039z M1033.393-35.433c-2.324-1.691-4.064-3.787-5.021-3.476
	c-1.784,0.581-3.112,2.561-4.631,3.959c1.579,1.448,2.972,3.51,4.821,4.075C1029.424-30.611,1031.172-33.25,1033.393-35.433z
	 M-482.912-103.764c2.124,2.335,3.593,4.999,4.606,4.835c1.878-0.303,3.491-2.258,5.213-3.524c-1.498-1.591-2.765-3.65-4.601-4.552
	C-478.479-107.391-480.449-105.364-482.912-103.764z M714.352,805.584c2.178,1.904,3.828,4.19,4.685,3.924
	c1.855-0.578,3.305-2.461,4.92-3.81c-1.528-1.542-2.843-3.592-4.692-4.371C718.536,801.021,716.612,803.553,714.352,805.584z
	 M1126.507,368.392c-2.233-2.024-3.684-4.344-4.977-4.259c-1.647,0.107-3.168,2.158-4.744,3.371c1.559,1.67,2.92,3.669,4.804,4.795
	C1122.104,372.605,1124.187,370.287,1126.507,368.392z M1004.493,502.015c1.764-2.477,3.761-4.104,3.5-5.185
	c-0.422-1.75-2.328-3.143-3.608-4.686c-1.515,1.575-3.562,2.944-4.291,4.823C999.794,497.744,1002.324,499.617,1004.493,502.015z
	 M1343.184,669.843c-2.384-1.911-3.836-3.342-5.566-4.233c-0.341-0.176-2.705,2.16-2.506,2.602c0.792,1.757,2.064,3.427,3.559,4.636
	C1338.998,673.112,1340.963,671.355,1343.184,669.843z M472.146,612.442c0.726,0.281,1.451,0.563,2.176,0.845
	c0.864-1.43,2.765-3.339,2.372-4.188c-0.758-1.639-2.678-2.942-4.405-3.807c-0.52-0.261-2.991,1.705-2.863,2.109
	C469.993,609.19,471.183,610.78,472.146,612.442z M-269.595-323.123c-2.31-1.663-3.789-3.081-5.552-3.75
	c-0.444-0.168-2.81,2.614-2.55,3.091c0.92,1.691,2.47,3.158,4.096,4.237C-273.302-319.346-271.539-321.354-269.595-323.123z
	 M979.159-335.425c-2.328-1.458-3.958-3.149-4.724-2.822c-1.711,0.733-2.991,2.472-4.447,3.802c1.087,0.945,2.402,2.837,3.215,2.641
	C974.987-332.233,976.516-333.719,979.159-335.425z M1353.698,309.24c2.296,1.802,3.714,3.269,5.442,4.021
	c0.438,0.19,2.884-2.408,2.661-2.855c-0.838-1.68-2.231-3.251-3.798-4.283C1357.593,305.853,1355.804,307.673,1353.698,309.24z
	 M1422.508,239.491c-2.486-1.688-4.032-3.007-5.82-3.726c-0.366-0.147-2.575,2.484-2.325,2.927c0.945,1.675,2.417,3.179,4.024,4.248
	C1418.716,243.16,1420.478,241.227,1422.508,239.491z M25.074,479.576c-1.348,1.977-2.868,3.514-2.603,3.941
	c1.001,1.61,2.405,3.198,4.046,4.052c0.543,0.283,2.252-1.675,3.428-2.608C28.544,483.412,27.144,481.863,25.074,479.576z
	 M152.97-164.02c-3.192-1.877-4.904-3.171-6.832-3.842c-0.589-0.205-2.639,1.808-2.555,1.953c0.978,1.681,1.962,3.705,3.531,4.555
	C147.949-160.901,149.926-162.555,152.97-164.02z M1304.463-345.66c1.889-2.234,3.415-3.596,4.215-5.299
	c0.199-0.425-2.466-3.005-2.917-2.782c-1.717,0.849-3.28,2.29-4.39,3.869C1301.119-349.513,1302.918-347.714,1304.463-345.66z
	 M1007.224-97.558c1.663-3.113,2.867-4.937,3.528-6.939c0.144-0.438-2.254-2.317-2.45-2.169c-1.535,1.16-3.248,2.462-3.989,4.128
	C1003.97-101.768,1005.675-100.087,1007.224-97.558z M-108.3-55.024c0.373-0.9,0.745-1.8,1.117-2.7
	c-1.49-0.627-3.516-2.178-4.359-1.688c-1.744,1.01-2.991,3.026-4.082,4.846c-0.158,0.264,1.97,2.636,2.527,2.454
	C-111.366-52.675-109.881-53.997-108.3-55.024z M884.665-36.573c-1.777,2.732-3.281,4.227-3.651,5.962
	c-0.183,0.857,1.726,2.16,2.688,3.262c1.226-1.6,2.734-3.073,3.527-4.864C887.514-32.859,886.079-34.267,884.665-36.573z
	 M1208.812-112.753c0.823,0.479,1.646,0.958,2.47,1.437c0.878-1.729,2.352-3.428,2.439-5.196c0.066-1.336-1.638-2.761-2.554-4.146
	c-1.333,1.493-2.962,2.833-3.852,4.554C1206.966-115.427,1208.265-113.896,1208.812-112.753z M-193.084-328.647
	c0.878,0.429,1.755,0.857,2.633,1.286c0.708-1.579,2.356-3.55,1.901-4.646c-0.679-1.633-2.716-2.902-4.453-3.771
	c-0.508-0.254-2.938,1.694-2.811,2.086C-195.23-331.904-194.05-330.311-193.084-328.647z M720.418-261.994
	c-1.974,1.829-3.089,2.863-4.205,3.897c1.656,1.359,3.226,2.865,5.049,3.941c0.324,0.191,2.585-1.732,2.441-2.116
	C723.036-258.06,721.839-259.651,720.418-261.994z M1207.406-46.02c-1.969,1.83-3.076,2.859-4.183,3.889
	c1.652,1.359,3.222,2.859,5.039,3.944c0.311,0.186,2.555-1.726,2.411-2.115C1210.014-42.086,1208.822-43.674,1207.406-46.02z
	 M-431.96,93.161c1.929-2.871,3.341-4.363,3.928-6.129c0.256-0.771-1.177-2.104-1.843-3.183c-1.578,1.124-3.665,1.96-4.531,3.488
	C-434.88,88.174-433.29,90.18-431.96,93.161z M163.791,441.354c-1.88-1.959-3.018-3.145-4.155-4.329
	c-1.275,1.551-2.795,2.98-3.668,4.731c-0.24,0.482,1.735,2.895,2.207,2.756C159.872,444.018,161.361,442.809,163.791,441.354z
	 M1248.064-97.406c-2.008,2.584-3.658,3.939-4.133,5.626c-0.257,0.91,1.498,2.387,2.345,3.607c1.292-1.49,2.884-2.831,3.732-4.541
	C1250.365-93.431,1249.149-94.929,1248.064-97.406z M533.928,489.893c-3.167-1.752-4.936-2.966-6.89-3.634
	c-0.449-0.153-2.353,2.124-2.204,2.343c1.071,1.574,2.292,3.313,3.906,4.132C529.46,493.098,531.197,491.457,533.928,489.893z
	 M372.097-46.747c-4.909-2.674-6.674-0.741-7.799,1.8c-0.276,0.623,0.995,1.932,1.556,2.924
	C367.698-43.419,369.542-44.814,372.097-46.747z M564.339,300.983c4.311,2.907,5.996,1.081,6.968-1.562
	c0.208-0.566-0.952-1.636-1.481-2.473C567.996,298.294,566.168,299.639,564.339,300.983z M-518.522,58.737
	c4.87,2.792,6.772,1.109,7.947-1.487c0.328-0.727-0.758-2.092-1.196-3.165C-513.708,55.42-515.645,56.755-518.522,58.737z
	 M-117.446,792.677c0.795-0.454,1.591-0.909,2.386-1.364c0.721-1.028,2.101-2.133,1.994-3.066c-0.131-1.145-1.505-2.148-2.342-3.213
	c-1.169,1.171-2.87,2.164-3.336,3.568C-119.108,789.695-117.936,791.3-117.446,792.677z M-196.526-205.761
	c-2.058-1.55-3.158-2.896-4.467-3.145c-0.652-0.125-2.35,1.748-2.366,2.736c-0.017,1.032,1.411,2.932,2.22,2.939
	C-199.901-203.22-198.65-204.506-196.526-205.761z M323.366,171.797c-1.226,1.472-2.84,2.651-2.653,3.351
	c0.352,1.318,1.74,2.36,2.697,3.519c1.113-1.24,2.428-2.374,3.179-3.804C326.748,174.561,324.849,173.177,323.366,171.797z
	 M-446.855,109.442c-1.851-1.141-3.051-2.478-4.014-2.324c-1.203,0.192-2.211,1.609-3.303,2.498c0.981,1.1,1.967,3.079,2.944,3.076
	C-450.032,112.688-448.842,111.021-446.855,109.442z M760.967,585.371c-1.886,4.968-0.418,6.855,2.481,7.733
	c0.624,0.188,1.669-1.012,2.52-1.573C764.529,589.76,763.092,587.988,760.967,585.371z M662.412-15.366
	c-1.646,1.942-3.062,2.969-3.391,4.27c-0.166,0.658,1.582,2.488,2.556,2.561c1.051,0.078,3.077-1.23,3.12-2.019
	C664.766-11.819,663.553-13.153,662.412-15.366z M427.9,642.862c-1.456,1.878-3.141,3.208-2.912,3.944
	c0.395,1.27,1.978,2.171,3.062,3.227c0.772-1.062,2.083-2.086,2.161-3.196C430.283,645.812,429.034,644.693,427.9,642.862z
	 M1203.923,90.084c-1.635,1.844-3.492,3.055-3.379,4.041c0.131,1.148,1.984,2.101,3.091,3.139c0.809-0.988,2.154-1.916,2.274-2.981
	C1206.028,93.227,1204.911,92.032,1203.923,90.084z M542.406-11.261c-1.452-1.348-2.552-3.028-3.254-2.876
	c-1.279,0.277-2.323,1.643-3.465,2.554c1.053,1.108,1.947,2.56,3.236,3.153C539.421-8.2,540.814-9.918,542.406-11.261z"/>
<path fill-rule="evenodd" clip-rule="evenodd" fill="#FFFFFF" d="M1481,566c-1.681,1.367-2.458,5.203-5.535,2.705
	c-0.909-0.738-0.948-4.411-0.14-4.985c1.37-0.974,3.73-0.554,5.675-0.72C1481,564,1481,565,1481,566z"/>
<path fill-rule="evenodd" clip-rule="evenodd" fill="#FFFFFF" d="M282.8-335.14c-0.53,9.121-6.586,12.251-14.229,7.354
	c-7.686-4.924-9.096-10.516-4.111-18.094c0.998-1.516,3.356-2.843,5.183-2.978C275.892-349.321,283.168-341.466,282.8-335.14z"/>
<path fill-rule="evenodd" clip-rule="evenodd" fill="#FFFFFF" d="M311.418,33.187c-2.979-1.81-7.204-2.979-8.561-5.622
	c-1.199-2.337,0.018-6.744,1.531-9.485c4.087-7.4,9.599-8.559,17.114-4.834c3.407,1.688,4.506,4.114,3.884,7.647
	C324.353,26.76,317.827,32.283,311.418,33.187z"/>
<path fill-rule="evenodd" clip-rule="evenodd" fill="#FFFFFF" d="M-113.561,344.668c3.002,1.986,7.08,3.367,8.651,6.158
	c1.159,2.06-0.234,6.377-1.738,8.962c-4.568,7.852-10.269,9.16-17.856,4.225c-1.692-1.101-3.176-3.943-3.166-5.977
	C-127.637,351.97-120.41,345.714-113.561,344.668z"/>
<path fill-rule="evenodd" clip-rule="evenodd" fill="#FFFFFF" d="M548.441,144.739c3.024,1.979,7.274,3.34,8.688,6.135
	c1.148,2.271-0.34,6.736-1.991,9.404c-4.761,7.688-10.586,8.771-18.026,3.615c-1.561-1.081-2.826-3.801-2.793-5.742
	C534.421,152.062,541.679,145.718,548.441,144.739z"/>
<path fill-rule="evenodd" clip-rule="evenodd" fill="#FFFFFF" d="M892.823,241.45c0.283-9.038,5.967-12.257,13.61-7.707
	c7.643,4.549,9.095,9.864,5.247,17.534c-1.754,3.497-4.355,4.299-7.78,3.781C898.84,254.292,891.46,246.562,892.823,241.45z"/>
<path fill-rule="evenodd" clip-rule="evenodd" fill="#FFFFFF" d="M835.851-66.749c-2.913-1.902-6.949-3.205-8.383-5.896
	c-1.144-2.146,0.148-6.409,1.643-8.99c4.534-7.833,9.683-8.832,17.52-4.714c3.345,1.758,3.872,4.315,3.399,7.455
	C849.168-73.174,842.299-67.587,835.851-66.749z"/>
<path fill-rule="evenodd" clip-rule="evenodd" fill="#FFFFFF" d="M134.384-238.238c2.063-3.169,3.478-7.682,6.392-9.086
	c2.383-1.149,7.092,0.617,9.827,2.477c7.277,4.951,8.061,9.547,3.38,16.964c-1.044,1.653-3.547,3.181-5.484,3.324
	C142.637-224.127,135.612-231.477,134.384-238.238z"/>
<path fill-rule="evenodd" clip-rule="evenodd" fill="#FFFFFF" d="M-295.363,602.72c2.015-2.988,3.435-7.04,6.243-8.609
	c2.059-1.15,6.346,0.252,8.929,1.745c7.7,4.452,9.024,9.795,4.377,17.381c-1.117,1.823-4.051,3.512-6.18,3.55
	C-287.996,616.893-294.369,609.525-295.363,602.72z"/>
<path fill-rule="evenodd" clip-rule="evenodd" fill="#FFFFFF" d="M1001.323,89.072c3.13,1.896,7.444,3.124,9.014,5.902
	c1.241,2.197,0.103,7.056-1.701,9.416c-6.256,8.186-9.755,8.959-17.137,4.372c-1.82-1.132-3.455-4.038-3.543-6.195
	C987.718,96.718,994.811,90.197,1001.323,89.072z"/>
<path fill-rule="evenodd" clip-rule="evenodd" fill="#FFFFFF" d="M544.47,789.091c-3.144-2.054-7.438-3.469-9.05-6.372
	c-1.185-2.135,0.21-6.96,2.073-9.297c6.005-7.536,9.173-8.397,16.872-4.293c2.989,1.594,3.975,3.713,3.688,6.817
	C557.544,781.493,550.767,787.83,544.47,789.091z"/>
<path fill-rule="evenodd" clip-rule="evenodd" fill="#FFFFFF" d="M-66.114,674.324c-6.005-0.529-8.717-3.432-7.992-8.754
	c1.033-7.588,11.199-14.227,17.637-11.511c3.066,1.294,4.568,3.134,2.551,6.511c-1.595,2.671-2.548,5.848-4.56,8.113
	C-60.533,671-63.53,672.479-66.114,674.324z"/>
<path fill-rule="evenodd" clip-rule="evenodd" fill="#FFFFFF" d="M454.137-123.591c0.067-6.807,2.887-10.843,7.656-10.96
	c3.945-0.097,11.126,6.698,11.242,10.637c0.116,3.954-6.396,9.478-11.127,9.439C457.409-114.513,454.085-118.412,454.137-123.591z"
	/>
<path fill-rule="evenodd" clip-rule="evenodd" fill="#FFFFFF" d="M-265.042,193.229c6.635,0.094,10.948,3.16,10.94,7.778
	c-0.006,4.009-6.899,11.106-10.829,11.151c-4.027,0.046-9.407-6.467-9.305-11.263C-274.138,196.313-270.349,193.153-265.042,193.229
	z"/>
<path fill-rule="evenodd" clip-rule="evenodd" fill="#FFFFFF" d="M567.303,496.085c6.8,0.021,10.803,2.832,10.854,7.621
	c0.044,4.079-6.615,11.174-10.566,11.257c-3.668,0.077-9.451-6.763-9.456-11.184C558.128,499.433,562.138,496.068,567.303,496.085z"
	/>
<path fill-rule="evenodd" clip-rule="evenodd" fill="#FFFFFF" d="M538.975,551.641c-6.547-0.152-10.482-2.97-10.577-7.573
	c-0.082-4.032,6.779-11.164,10.764-11.188c3.988-0.023,9.495,6.72,9.266,11.346C548.196,548.861,544.49,551.769,538.975,551.641z"/>
<path fill-rule="evenodd" clip-rule="evenodd" fill="#FFFFFF" d="M1415.102-98.274c-0.011,4.068-6.917,11.223-10.76,11.145
	c-3.49-0.07-9.046-6.75-9.176-11.034c-0.131-4.321,3.914-7.773,9.098-7.766C1411.145-105.919,1415.113-103.115,1415.102-98.274z"/>
<path fill-rule="evenodd" clip-rule="evenodd" fill="#FFFFFF" d="M752.897-241.024c0.201-4.803,4.062-7.46,10.441-7.188
	c6.008,0.256,9.872,3.458,9.546,7.91c-0.311,4.239-7.397,10.882-11.296,10.589C757.824-229.996,752.715-236.646,752.897-241.024z"/>
<path fill-rule="evenodd" clip-rule="evenodd" fill="#FFFFFF" d="M1329.086,15.923c-6.758-0.036-10.994-3.053-10.888-7.752
	c0.089-3.96,7.247-11.18,10.958-11.052c3.644,0.124,8.919,6.645,8.983,11.103C1338.205,12.723,1334.409,15.952,1329.086,15.923z"/>
<path fill-rule="evenodd" clip-rule="evenodd" fill="#FFFFFF" d="M-337.469,354.532c-6.708-0.168-10.79-3.243-10.552-7.95
	c0.213-4.233,7.066-10.918,11.04-10.767c4.078,0.154,9.33,6.835,9.009,11.46C-328.288,351.843-331.986,354.669-337.469,354.532z"/>
<path fill-rule="evenodd" clip-rule="evenodd" fill="#FFFFFF" d="M1416.527,421.778c0.168-6.5,2.988-10.444,7.516-10.509
	c4.021-0.058,11.057,6.773,11.095,10.771c0.039,4.085-6.484,9.34-11.312,9.114C1419.144,430.936,1416.383,427.389,1416.527,421.778z
	"/>
<path fill-rule="evenodd" clip-rule="evenodd" fill="#FFFFFF" d="M-310.479,792.184c4.02-0.036,5.082,2.945,5.204,5.945
	c0.214,5.263-5.498,11.762-9.674,11.598c-2.849-0.112-5.993-4.98-5.989-9.275C-320.934,796.691-315.251,792.2-310.479,792.184z"/>
<path fill-rule="evenodd" clip-rule="evenodd" fill="#FFFFFF" d="M153.369,617.081c4.003-0.212,5.29,2.573,5.532,5.689
	c0.407,5.256-5.061,11.836-9.462,11.895c-3.068,0.04-6.001-4.188-6.278-9.052C142.945,621.828,148.447,617.229,153.369,617.081z"/>
<path fill-rule="evenodd" clip-rule="evenodd" fill="#FFFFFF" d="M486.458,176.362c-0.059,3.899-5.688,8.211-10.539,8.132
	c-3.691-0.06-4.907-2.488-5.065-5.553c-0.283-5.47,4.768-11.82,9.278-11.968C483.377,166.867,486.531,171.548,486.458,176.362z"/>
<path fill-rule="evenodd" clip-rule="evenodd" fill="#FFFFFF" d="M-38.909-268.334c0.299,4.14-2.629,5.179-5.722,5.305
	c-5.555,0.226-11.74-5.068-11.64-9.537c0.068-3.046,4.401-5.95,9.109-6.105C-43.337-278.797-38.896-273.235-38.909-268.334z"/>
<path fill-rule="evenodd" clip-rule="evenodd" fill="#FFFFFF" d="M29.806,702.99c3.94-0.084,8.112,5.266,8.324,10.231
	c0.18,4.187-2.753,5.193-5.696,5.408c-5.378,0.392-11.71-5.087-11.658-9.542C20.811,706.058,25.209,703.088,29.806,702.99z"/>
<path fill-rule="evenodd" clip-rule="evenodd" fill="#FFFFFF" d="M-212.779,421.215c0.036,4.012-5.181,8.25-10.225,8.375
	c-4.04,0.1-5.183-2.622-5.281-5.811c-0.164-5.342,5.265-11.822,9.504-11.756C-215.759,412.07-212.821,416.571-212.779,421.215z"/>
<path fill-rule="evenodd" clip-rule="evenodd" fill="#FFFFFF" d="M-439.216,412.298c-0.145-3.929,4.417-8.79,8.48-9.038
	c3.886-0.237,7.751,2.466,7.737,5.412c-0.017,3.454-5.268,9.102-8.604,9.254C-434.999,418.081-439.115,415.037-439.216,412.298z"/>
<path fill-rule="evenodd" clip-rule="evenodd" fill="#FFFFFF" d="M564.31,808.412c0.687-2.781,0.912-6.471,5.433-6.598
	c3.602-0.101,9.174,5.33,9.135,8.632c-0.042,3.617-3.163,7.495-5.963,7.411C569.061,817.74,564.326,812.785,564.31,808.412z"/>
<path fill-rule="evenodd" clip-rule="evenodd" fill="#FFFFFF" d="M505.95-299.486c-0.02-3.655,2.985-7.521,5.814-7.481
	c3.969,0.057,8.626,4.799,8.524,8.957c-0.085,3.482-0.815,6.897-5.236,7.101C511.3-290.738,505.97-295.982,505.95-299.486z"/>
<path fill-rule="evenodd" clip-rule="evenodd" fill="#FFFFFF" d="M734.694-91.929c-2.792-0.404-6.201-1.174-6.401-5.458
	c-0.168-3.603,5.475-8.903,8.92-8.859c3.923,0.05,7.419,2.901,7.282,5.94C744.318-96.348,739.447-91.878,734.694-91.929z"/>
<path fill-rule="evenodd" clip-rule="evenodd" fill="#FFFFFF" d="M1297.564,444.106c-3.786,0.019-7.517-2.891-7.426-5.792
	c0.122-3.941,4.89-8.518,9.011-8.431c3.513,0.074,6.852,0.869,7.062,5.248C1306.39,438.844,1301.112,444.089,1297.564,444.106z"/>
<path fill-rule="evenodd" clip-rule="evenodd" fill="#FFFFFF" d="M1293.497,694.143c-5.344-0.137-9.823-5.025-9.511-9.419
	c0.236-3.328,1.278-6.429,5.268-6.608c3.88-0.174,9.475,5.588,8.849,9.197C1297.558,690.461,1296.865,694.018,1293.497,694.143z"/>
<path fill-rule="evenodd" clip-rule="evenodd" fill="#FFFFFF" d="M-380.994,252.267c-3.82-0.059-5.62-2.464-3.647-5.636
	c1.736-2.793,4-5.759,6.78-7.271c3.16-1.72,6.064,0.825,5.906,4.248C-372.128,247.341-377.328,252.322-380.994,252.267z"/>
<path fill-rule="evenodd" clip-rule="evenodd" fill="#FFFFFF" d="M-240.325,90.236c0.173,4.761-5.116,10.845-8.549,10.511
	c-1.827-0.179-4.701-1.975-4.967-3.431c-0.717-3.92,5.152-10.037,8.94-9.592C-243.067,87.94-241.404,89.61-240.325,90.236z"/>
<path fill-rule="evenodd" clip-rule="evenodd" fill="#FFFFFF" d="M743.019,359.971c-0.492,0.553-1.834,2.972-2.65,2.806
	c-2.71-0.552-5.857-1.442-7.641-3.333c-1.608-1.705-1.831-4.863-2.242-7.448c-0.103-0.649,1.298-2.029,2.212-2.261
	C736.26,348.831,742.992,354.846,743.019,359.971z"/>
<path fill-rule="evenodd" clip-rule="evenodd" fill="#FFFFFF" d="M85.068,430.501c-0.169,0.006-0.388,0.075-0.49-0.005
	c-1.308-1.012-3.457-1.853-3.74-3.108c-1.009-4.481,2.268-7.181,5.545-8.941c1.741-0.935,4.548-0.164,6.752,0.354
	c0.322,0.075,0.348,3.167-0.151,4.638C91.712,427.186,89.575,430.247,85.068,430.501z"/>
<path fill-rule="evenodd" clip-rule="evenodd" fill="#FFFFFF" d="M1206.245,74.427c-0.583-1.008-2.235-2.644-2.412-4.426
	c-0.349-3.534,5.495-9.259,8.75-8.575c1.674,0.352,4.172,2.209,4.285,3.556C1217.226,69.231,1211.593,74.63,1206.245,74.427z"/>
<path fill-rule="evenodd" clip-rule="evenodd" fill="#FFFFFF" d="M13.958-153.016c-0.068-3.511,1.315-7.292,4.851-6.479
	c2.803,0.645,6.324,4.175,6.919,6.977c0.84,3.958-3.751,5.191-6.858,5.44C15.352-146.796,13.671-149.423,13.958-153.016z"/>
<path fill-rule="evenodd" clip-rule="evenodd" fill="#FFFFFF" d="M180.824,235.539c-2.2-0.169-5.441-0.487-5.916-4.646
	c-0.32-2.809,3.984-7.497,6.842-7.385c4.287,0.167,5.437,3.895,5.807,6.879C187.964,233.672,185.489,235.734,180.824,235.539z"/>
<path fill-rule="evenodd" clip-rule="evenodd" fill="#FFFFFF" d="M-53.902,101.332c0.115-3.386,0.912-6.428,4.854-7.023
	c2.765-0.418,7.418,4.095,7.332,7.012c-0.129,4.391-3.82,5.416-6.909,5.765C-52.116,107.479-53.945,104.926-53.902,101.332z"/>
<path fill-rule="evenodd" clip-rule="evenodd" fill="#FFFFFF" d="M889.021,110.478c0.216-3.278,0.763-6.414,4.883-6.811
	c2.864-0.275,7.525,4.074,7.332,6.914c-0.289,4.247-3.917,5.316-7.024,5.629C890.77,116.557,888.857,114.139,889.021,110.478z"/>
<path fill-rule="evenodd" clip-rule="evenodd" fill="#FFFFFF" d="M339.834,480.367c-0.213,2.575-1.033,6.559-4.948,5.687
	c-2.729-0.607-5.375-3.871-6.951-6.59c-1.124-1.938,3.595-5.989,6.747-5.82C338.239,473.835,340.02,475.983,339.834,480.367z"/>
<path fill-rule="evenodd" clip-rule="evenodd" fill="#FFFFFF" d="M-477.129-280.065c-0.11-3.546,1.188-7.319,4.777-6.476
	c2.808,0.66,6.363,4.175,6.909,6.949c0.735,3.736-3.711,5.227-6.871,5.434C-475.829-273.928-477.485-276.527-477.129-280.065z"/>
<path fill-rule="evenodd" clip-rule="evenodd" fill="#FFFFFF" d="M742.396,442.248c0.016,3.192-1.242,6.923-4.96,6.046
	c-2.723-0.643-6.157-4.052-6.705-6.75c-0.793-3.906,3.633-5.325,6.78-5.569C741.06,435.699,742.708,438.348,742.396,442.248z"/>
<path fill-rule="evenodd" clip-rule="evenodd" fill="#FFFFFF" d="M-445.301-327.889c0.133-3.911,1.221-7.785,4.97-6.77
	c2.8,0.758,4.775,4.563,7.118,7.011c-2.456,1.857-4.732,4.855-7.415,5.279C-443.858-321.859-445.724-324.806-445.301-327.889z"/>
<path fill-rule="evenodd" clip-rule="evenodd" fill="#FFFFFF" d="M1141.431,624.758c-0.209,4.221-1.008,8.132-4.979,7.144
	c-2.727-0.678-6.182-3.958-6.717-6.601c-0.78-3.851,3.58-5.32,6.733-5.568C1139.998,619.456,1141.68,622.042,1141.431,624.758z"/>
<path fill-rule="evenodd" clip-rule="evenodd" fill="#FFFFFF" d="M-25.21,383.332c-2.441,1.837-4.678,4.292-7.427,5.205
	c-1.099,0.365-4.251-2.384-4.819-4.225c-0.792-2.568,3.733-6.491,6.595-5.916c1.928,0.389,3.633,1.883,5.437,2.882
	C-25.353,381.963-25.281,382.647-25.21,383.332z"/>
<path fill-rule="evenodd" clip-rule="evenodd" fill="#FFFFFF" d="M840.732-31.004c0.669,0.804,2.748,2.219,3.104,3.981
	c0.55,2.727-3.989,6.866-6.544,6.041c-1.851-0.599-4.177-2.365-4.629-4.055C831.919-27.824,836.052-31.161,840.732-31.004z"/>
<path fill-rule="evenodd" clip-rule="evenodd" fill="#FFFFFF" d="M431.149,571.551c2.525-2.632,3.716-4.831,5.477-5.478
	c2.475-0.908,7.131,3.431,6.458,6.095c-0.494,1.957-3.277,5.181-3.911,4.935C436.583,576.097,434.428,573.974,431.149,571.551z"/>
<path fill-rule="evenodd" clip-rule="evenodd" fill="#FFFFFF" d="M1447.251,468.01c0.661,0.821,3.312,3.304,2.97,3.826
	c-1.567,2.394-3.727,4.722-6.222,5.996c-0.796,0.406-4.286-2.231-4.775-3.973C1438.453,471.114,1442.613,467.834,1447.251,468.01z"
	/>
<path fill-rule="evenodd" clip-rule="evenodd" fill="#FFFFFF" d="M738.826,189.879c0.659,0.771,3.354,3.266,3.059,3.691
	c-1.698,2.455-3.891,4.78-6.428,6.286c-0.596,0.354-4.14-2.362-4.607-4.124C730.099,192.91,734.111,189.725,738.826,189.879z"/>
<path fill-rule="evenodd" clip-rule="evenodd" fill="#FFFFFF" d="M1066.122,308.88c0.882-0.626,2.447-2.589,4.233-2.814
	c2.862-0.362,6.739,4.239,5.78,6.75c-0.677,1.771-2.622,3.942-4.306,4.247C1068.845,317.603,1065.736,313.509,1066.122,308.88z"/>
<path fill-rule="evenodd" clip-rule="evenodd" fill="#FFFFFF" d="M-243.138-261.483c-3.2-3.329-5.42-5.639-7.64-7.948
	c1.831-1.355,3.548-3.628,5.517-3.873c3.936-0.489,5.47,2.787,5.622,6.084C-239.574-265.831-241.304-264.36-243.138-261.483z"/>
<path fill-rule="evenodd" clip-rule="evenodd" fill="#FFFFFF" d="M797.966-309.494c0.76-0.729,2.022-2.874,3.774-3.405
	c2.559-0.776,6.942,3.552,6.284,6.196c-0.463,1.858-2.11,4.247-3.761,4.797C801.491-300.983,797.991-304.84,797.966-309.494z"/>
<path fill-rule="evenodd" clip-rule="evenodd" fill="#FFFFFF" d="M-225.804,205.352c-1.608,0.716-4.503,3.043-5.803,2.354
	c-2.312-1.223-3.775-4.204-5.211-6.672c-0.13-0.225,2.451-2.891,3.869-2.985C-229.193,197.8-225.567,201.181-225.804,205.352z"/>
<path fill-rule="evenodd" clip-rule="evenodd" fill="#FFFFFF" d="M654.79,551.26c2.6-2.539,5.026-5.408,5.377-5.174
	c2.512,1.681,4.908,3.788,6.565,6.276c0.332,0.498-3.297,4.874-4.002,4.604C660.173,555.983,658.082,553.785,654.79,551.26z"/>
<path fill-rule="evenodd" clip-rule="evenodd" fill="#FFFFFF" d="M-3.51,187.543c0.727,1.082,2.27,2.396,2.481,3.898
	c0.478,3.374-3.278,8.23-5.761,7.357c-1.786-0.628-3.78-3.259-4.004-5.19C-11.242,189.721-8.022,188.463-3.51,187.543z"/>
<path fill-rule="evenodd" clip-rule="evenodd" fill="#FFFFFF" d="M891.688,344.479c0.796,1.485,2.173,2.934,2.273,4.464
	c0.241,3.68-3.424,8.047-5.908,6.988c-1.771-0.755-4.108-3.964-3.687-5.266c0.807-2.492,3.399-4.406,5.251-6.561
	C890.309,344.23,890.998,344.354,891.688,344.479z"/>
<path fill-rule="evenodd" clip-rule="evenodd" fill="#FFFFFF" d="M-163.602,508.574c-0.006,4.979-3.339,9.388-5.992,8.403
	c-1.775-0.659-3.779-3.396-3.881-5.3c-0.199-3.719,2.95-5.454,6.289-5.493C-165.805,506.169-164.402,508.004-163.602,508.574z"/>
<path fill-rule="evenodd" clip-rule="evenodd" fill="#FFFFFF" d="M49.419,193.542c0.71-5.062,3.277-6.842,6.678-6.665
	c1.286,0.067,3.29,2.198,3.513,3.617c0.49,3.125-3.733,8.133-5.959,7.258C51.753,197.005,50.481,194.664,49.419,193.542z"/>
<path fill-rule="evenodd" clip-rule="evenodd" fill="#FFFFFF" d="M-506.293-288.806c-3.065-3.409-5.172-5.753-7.28-8.097
	c1.865-1.33,4.573-4.177,5.433-3.699c2.37,1.318,4.255,3.86,5.667,6.302C-502.12-293.688-504.269-291.629-506.293-288.806z"/>
<path fill-rule="evenodd" clip-rule="evenodd" fill="#FFFFFF" d="M563.806-266.108c-1.681,0.773-4.425,3.103-5.918,2.471
	c-2.225-0.94-3.795-3.846-5.077-6.222c-0.232-0.431,2.116-3.157,3.505-3.38C559.517-273.752,563.848-269.965,563.806-266.108z"/>
<path fill-rule="evenodd" clip-rule="evenodd" fill="#FFFFFF" d="M1403.799,540.311c-1.835-2.927-3.646-4.5-3.448-5.756
	c0.512-3.234,1.617-7.142,5.601-7.093c1.422,0.017,4.19,3.857,3.867,5.448C1409.351,535.208,1406.626,537.046,1403.799,540.311z"/>
<path fill-rule="evenodd" clip-rule="evenodd" fill="#FFFFFF" d="M949.43,640.037c-1.867-2.804-3.693-4.296-3.567-5.6
	c0.315-3.271,1.244-7.233,5.331-7.185c1.521,0.019,4.471,3.712,4.162,5.184C954.861,634.799,952.199,636.707,949.43,640.037z"/>
<path fill-rule="evenodd" clip-rule="evenodd" fill="#FFFFFF" d="M378.334-371.637c-2.735,1.815-4.055,3.351-5.551,3.548
	c-3.324,0.438-8.331-3.421-7.354-5.661c0.817-1.874,3.997-4.208,5.63-3.875C373.347-377.16,375.17-374.411,378.334-371.637z"/>
<path fill-rule="evenodd" clip-rule="evenodd" fill="#FFFFFF" d="M-138.443-280.26c2.746,3.272,4.781,5.406,6.335,7.847
	c0.245,0.384-1.684,2.153-2.608,3.282c-2.074-1.883-4.361-3.599-6.07-5.77C-141.203-275.429-139.723-277.451-138.443-280.26z"/>
<path fill-rule="evenodd" clip-rule="evenodd" fill="#FFFFFF" d="M421.701-154.301c-1.77-2.016-3.245-2.923-3.364-3.983
	c-0.31-2.749,4.014-7.053,6.374-6.334c1.127,0.343,2.796,2.736,2.518,3.217C425.88-159.071,423.955-157.073,421.701-154.301z"/>
<path fill-rule="evenodd" clip-rule="evenodd" fill="#FFFFFF" d="M-424.667,455.807c-3.13,2.612-5.123,4.622-7.485,5.992
	c-0.564,0.327-2.366-1.478-3.598-2.303c1.998-2.17,3.868-4.495,6.115-6.366C-429.239,452.8-427.263,454.367-424.667,455.807z"/>
<path fill-rule="evenodd" clip-rule="evenodd" fill="#FFFFFF" d="M284.596,599.327c-2.694-3.13-4.751-5.252-6.353-7.675
	c-0.233-0.353,1.708-2.143,2.643-3.267c2.078,2.024,4.31,3.927,6.097,6.182C287.32,594.994,285.896,596.819,284.596,599.327z"/>
<path fill-rule="evenodd" clip-rule="evenodd" fill="#FFFFFF" d="M42.748,522.562c-3.463,2.335-5.767,4.064-8.285,5.384
	c-0.355,0.187-2.612-2.339-2.554-2.409c1.871-2.238,3.819-4.451,6.063-6.294C38.268,519.001,40.21,520.766,42.748,522.562z"/>
<path fill-rule="evenodd" clip-rule="evenodd" fill="#FFFFFF" d="M951.617-354.228c-1.371,0.541-3.304,1.934-4.011,1.467
	c-2.437-1.607-4.483-3.83-6.483-5.999c-0.08-0.086,2.446-3.063,2.714-2.907c2.394,1.398,4.552,3.199,6.779,4.88
	C950.95-355.934,951.284-355.081,951.617-354.228z"/>
<path fill-rule="evenodd" clip-rule="evenodd" fill="#FFFFFF" d="M267.668-294.843c-2.226,1.933-4.039,3.815-4.255,3.647
	c-2.272-1.768-4.372-3.792-6.243-5.981c-0.182-0.213,2.026-3.014,2.212-2.914C261.916-298.729,264.29-297.067,267.668-294.843z"/>
<path fill-rule="evenodd" clip-rule="evenodd" fill="#FFFFFF" d="M778.627-114.132c-3.505,2.259-5.837,3.932-8.37,5.202
	c-0.353,0.177-2.525-2.34-2.464-2.412c1.889-2.197,3.854-4.368,6.107-6.165C774.199-117.745,776.107-115.965,778.627-114.132z"/>
<path fill-rule="evenodd" clip-rule="evenodd" fill="#FFFFFF" d="M775.431,193.092c-1.823-2.639-3.527-4.549-3.285-4.841
	c1.856-2.23,4.052-4.195,6.315-6.026c0.127-0.103,2.768,2.244,2.602,2.544C779.67,187.281,777.895,189.582,775.431,193.092z"/>
<path fill-rule="evenodd" clip-rule="evenodd" fill="#FFFFFF" d="M1017.848,579.844c-2.854-3.271-4.889-5.396-6.542-7.786
	c-0.188-0.27,1.775-2.026,2.741-3.095c2.004,1.911,4.185,3.684,5.882,5.837C1020.314,575.29,1019.029,577.097,1017.848,579.844z"/>
<path fill-rule="evenodd" clip-rule="evenodd" fill="#FFFFFF" d="M626.244,33.741c-1.701-2.584-3.382-4.531-3.122-4.839
	c1.846-2.184,4.05-4.081,6.308-5.857c0.127-0.1,2.66,2.211,2.498,2.493C630.496,28.026,628.707,30.31,626.244,33.741z"/>
<path fill-rule="evenodd" clip-rule="evenodd" fill="#FFFFFF" d="M1076.016,728.022c-1.676,3.698-2.592,7.918-7.768,6.677
	c-0.676-0.162-1.411-3.219-0.929-4.479C1068.729,726.542,1072.04,725.749,1076.016,728.022z"/>
<path fill-rule="evenodd" clip-rule="evenodd" fill="#FFFFFF" d="M1352.097,761.937c3.748,1.671,7.947,2.659,6.581,7.826
	c-0.176,0.667-3.258,1.319-4.515,0.806C1350.463,769.057,1349.773,765.871,1352.097,761.937z"/>
<path fill-rule="evenodd" clip-rule="evenodd" fill="#FFFFFF" d="M1294.111,339.262c2.502,3.236,4.38,5.32,5.734,7.703
	c0.28,0.492-1.387,2.092-2.156,3.181c-2.211-1.952-4.549-3.792-6.491-5.982C1290.918,343.848,1292.543,341.842,1294.111,339.262z"/>
<path fill-rule="evenodd" clip-rule="evenodd" fill="#FFFFFF" d="M-234.152,426.318c-3.183,2.784-5.287,4.845-7.686,6.47
	c-0.336,0.228-2.121-1.683-3.234-2.603c1.995-2.081,3.866-4.314,6.09-6.111C-238.548,423.725-236.744,425.071-234.152,426.318z"/>
<path fill-rule="evenodd" clip-rule="evenodd" fill="#FFFFFF" d="M-64.697,271.597c-1.403-2.49-3.109-4.142-2.894-5.486
	c0.27-1.688,2.114-3.123,3.279-4.667c1.591,1.666,3.696,3.125,4.5,5.109C-59.521,267.271-62.35,269.252-64.697,271.597z"/>
<path fill-rule="evenodd" clip-rule="evenodd" fill="#FFFFFF" d="M1336.232-322.645c1.926,2.385,4.316,4.343,3.979,5.13
	c-0.777,1.812-2.882,3.056-4.448,4.53c-1.264-1.654-3.084-3.167-3.556-5.023C1331.977-318.916,1334.251-320.461,1336.232-322.645z"
	/>
<path fill-rule="evenodd" clip-rule="evenodd" fill="#FFFFFF" d="M-439.491,762.485c-2.421,1.739-4.507,3.893-5.097,3.54
	c-1.85-1.104-3.136-3.153-4.64-4.836c1.628-1.139,3.231-3.102,4.893-3.152C-443.048,757.998-441.689,760.351-439.491,762.485z"/>
<path fill-rule="evenodd" clip-rule="evenodd" fill="#FFFFFF" d="M539.901-349.063c-2.721,1.78-4.406,3.743-5.952,3.638
	c-1.367-0.093-3.581-2.485-3.587-3.869c-0.007-1.518,2.428-4.47,3.2-4.286C535.481-353.123,537.061-351.237,539.901-349.063z"/>
<path fill-rule="evenodd" clip-rule="evenodd" fill="#FFFFFF" d="M462.904,382.718c2.235,2.915,4.607,4.675,4.548,6.35
	c-0.049,1.361-3.011,2.619-4.682,3.923c-1.027-1.565-2.716-3.065-2.879-4.717C459.755,386.89,461.397,385.329,462.904,382.718z"/>
<path fill-rule="evenodd" clip-rule="evenodd" fill="#FFFFFF" d="M807.639,658.585c-2.011-2.323-4.527-4.29-4.205-5.044
	c0.783-1.832,2.885-3.101,4.456-4.596c1.331,1.625,3.221,3.089,3.753,4.942C811.897,654.776,809.583,656.402,807.639,658.585z"/>
<path fill-rule="evenodd" clip-rule="evenodd" fill="#FFFFFF" d="M-378.799,450.794c-2.005-2.405-4.436-4.298-4.114-5.143
	c0.707-1.858,2.805-3.188,4.336-4.732c1.317,1.656,3.188,3.158,3.715,5.036C-374.604,446.875-376.844,448.496-378.799,450.794z"/>
<path fill-rule="evenodd" clip-rule="evenodd" fill="#FFFFFF" d="M757.625,400.039c-1.85,1.291-3.59,3.242-5.599,3.577
	c-0.917,0.152-2.365-2.884-3.572-4.474c1.527-1.086,2.962-2.817,4.611-3.056c1.371-0.198,2.996,1.358,4.509,2.138
	C757.592,398.83,757.608,399.435,757.625,400.039z"/>
<path fill-rule="evenodd" clip-rule="evenodd" fill="#FFFFFF" d="M1033.393-35.433c-2.221,2.183-3.969,4.821-4.83,4.559
	c-1.85-0.565-3.242-2.627-4.821-4.075c1.519-1.398,2.847-3.378,4.631-3.959C1029.328-39.22,1031.068-37.124,1033.393-35.433z"/>
<path fill-rule="evenodd" clip-rule="evenodd" fill="#FFFFFF" d="M-482.912-103.764c2.463-1.601,4.433-3.627,5.219-3.242
	c1.836,0.902,3.103,2.961,4.601,4.552c-1.723,1.267-3.335,3.222-5.213,3.524C-479.318-98.765-480.788-101.429-482.912-103.764z"/>
<path fill-rule="evenodd" clip-rule="evenodd" fill="#FFFFFF" d="M714.352,805.584c2.261-2.031,4.185-4.563,4.912-4.257
	c1.85,0.779,3.164,2.829,4.692,4.371c-1.615,1.349-3.064,3.231-4.92,3.81C718.18,809.774,716.529,807.488,714.352,805.584z"/>
<path fill-rule="evenodd" clip-rule="evenodd" fill="#FFFFFF" d="M1126.507,368.392c-2.32,1.896-4.403,4.214-4.917,3.907
	c-1.884-1.126-3.245-3.125-4.804-4.795c1.576-1.213,3.097-3.264,4.744-3.371C1122.823,364.048,1124.273,366.367,1126.507,368.392z"
	/>
<path fill-rule="evenodd" clip-rule="evenodd" fill="#FFFFFF" d="M1004.493,502.015c-2.169-2.397-4.699-4.271-4.399-5.047
	c0.729-1.879,2.776-3.248,4.291-4.823c1.28,1.543,3.187,2.936,3.608,4.686C1008.254,497.911,1006.257,499.538,1004.493,502.015z"/>
<path fill-rule="evenodd" clip-rule="evenodd" fill="#FFFFFF" d="M1343.184,669.843c-2.221,1.513-4.186,3.27-4.514,3.004
	c-1.494-1.209-2.767-2.879-3.559-4.636c-0.199-0.441,2.165-2.777,2.506-2.602C1339.348,666.501,1340.8,667.932,1343.184,669.843z"/>
<path fill-rule="evenodd" clip-rule="evenodd" fill="#FFFFFF" d="M472.146,612.442c-0.964-1.662-2.153-3.252-2.721-5.04
	c-0.128-0.404,2.344-2.37,2.863-2.109c1.728,0.864,3.647,2.168,4.405,3.807c0.393,0.849-1.508,2.758-2.372,4.188
	C473.598,613.006,472.872,612.724,472.146,612.442z"/>
<path fill-rule="evenodd" clip-rule="evenodd" fill="#FFFFFF" d="M-269.595-323.123c-1.943,1.769-3.707,3.777-4.006,3.579
	c-1.625-1.079-3.176-2.546-4.096-4.237c-0.26-0.478,2.106-3.259,2.55-3.091C-273.384-326.203-271.905-324.785-269.595-323.123z"/>
<path fill-rule="evenodd" clip-rule="evenodd" fill="#FFFFFF" d="M979.159-335.425c-2.644,1.706-4.172,3.192-5.956,3.621
	c-0.812,0.196-2.128-1.696-3.215-2.641c1.456-1.33,2.736-3.068,4.447-3.802C975.201-338.575,976.831-336.883,979.159-335.425z"/>
<path fill-rule="evenodd" clip-rule="evenodd" fill="#FFFFFF" d="M1353.698,309.24c2.105-1.567,3.895-3.388,4.306-3.117
	c1.566,1.032,2.96,2.604,3.798,4.283c0.223,0.447-2.224,3.046-2.661,2.855C1357.412,312.509,1355.994,311.042,1353.698,309.24z"/>
<path fill-rule="evenodd" clip-rule="evenodd" fill="#FFFFFF" d="M1422.508,239.491c-2.03,1.735-3.792,3.669-4.121,3.449
	c-1.607-1.069-3.079-2.573-4.024-4.248c-0.25-0.442,1.959-3.074,2.325-2.927C1418.476,236.484,1420.021,237.804,1422.508,239.491z"
	/>
<path fill-rule="evenodd" clip-rule="evenodd" fill="#FFFFFF" d="M25.074,479.576c2.069,2.287,3.47,3.836,4.871,5.385
	c-1.176,0.934-2.885,2.892-3.428,2.608c-1.641-0.854-3.045-2.441-4.046-4.052C22.206,483.09,23.727,481.553,25.074,479.576z"/>
<path fill-rule="evenodd" clip-rule="evenodd" fill="#FFFFFF" d="M152.97-164.02c-3.044,1.465-5.021,3.119-5.855,2.667
	c-1.569-0.851-2.554-2.874-3.531-4.555c-0.084-0.146,1.966-2.158,2.555-1.953C148.065-167.191,149.777-165.896,152.97-164.02z"/>
<path fill-rule="evenodd" clip-rule="evenodd" fill="#FFFFFF" d="M1304.463-345.66c-1.545-2.054-3.344-3.853-3.092-4.212
	c1.109-1.579,2.673-3.02,4.39-3.869c0.451-0.223,3.116,2.357,2.917,2.782C1307.878-349.256,1306.352-347.895,1304.463-345.66z"/>
<path fill-rule="evenodd" clip-rule="evenodd" fill="#FFFFFF" d="M1007.224-97.558c-1.549-2.529-3.254-4.21-2.911-4.979
	c0.741-1.667,2.454-2.968,3.989-4.128c0.196-0.148,2.594,1.731,2.45,2.169C1010.091-102.494,1008.887-100.671,1007.224-97.558z"/>
<path fill-rule="evenodd" clip-rule="evenodd" fill="#FFFFFF" d="M-108.3-55.024c-1.581,1.027-3.065,2.35-4.797,2.911
	c-0.558,0.182-2.686-2.19-2.527-2.454c1.091-1.819,2.338-3.836,4.082-4.846c0.844-0.489,2.869,1.062,4.359,1.688
	C-107.556-56.824-107.928-55.925-108.3-55.024z"/>
<path fill-rule="evenodd" clip-rule="evenodd" fill="#FFFFFF" d="M884.665-36.573c1.414,2.307,2.849,3.714,2.563,4.359
	c-0.793,1.791-2.302,3.265-3.527,4.864c-0.962-1.102-2.87-2.404-2.688-3.262C881.384-32.347,882.888-33.841,884.665-36.573z"/>
<path fill-rule="evenodd" clip-rule="evenodd" fill="#FFFFFF" d="M1208.812-112.753c-0.548-1.143-1.847-2.673-1.496-3.351
	c0.89-1.722,2.519-3.062,3.852-4.554c0.916,1.385,2.62,2.81,2.554,4.146c-0.088,1.768-1.562,3.467-2.439,5.196
	C1210.459-111.795,1209.636-112.274,1208.812-112.753z"/>
<path fill-rule="evenodd" clip-rule="evenodd" fill="#FFFFFF" d="M-193.084-328.647c-0.966-1.664-2.146-3.257-2.729-5.045
	c-0.128-0.392,2.302-2.34,2.811-2.086c1.737,0.869,3.774,2.138,4.453,3.771c0.455,1.096-1.193,3.067-1.901,4.646
	C-191.329-327.79-192.207-328.218-193.084-328.647z"/>
<path fill-rule="evenodd" clip-rule="evenodd" fill="#FFFFFF" d="M720.418-261.994c1.421,2.343,2.618,3.934,3.285,5.723
	c0.144,0.383-2.117,2.307-2.441,2.116c-1.823-1.077-3.393-2.582-5.049-3.941C717.329-259.131,718.444-260.166,720.418-261.994z"/>
<path fill-rule="evenodd" clip-rule="evenodd" fill="#FFFFFF" d="M1207.406-46.02c1.416,2.346,2.607,3.934,3.268,5.718
	c0.144,0.39-2.101,2.301-2.411,2.115c-1.817-1.085-3.387-2.585-5.039-3.944C1204.33-43.16,1205.438-44.189,1207.406-46.02z"/>
<path fill-rule="evenodd" clip-rule="evenodd" fill="#FFFFFF" d="M-431.96,93.161c-1.33-2.981-2.92-4.987-2.446-5.823
	c0.866-1.528,2.954-2.364,4.531-3.488c0.666,1.078,2.099,2.411,1.843,3.183C-428.619,88.798-430.031,90.29-431.96,93.161z"/>
<path fill-rule="evenodd" clip-rule="evenodd" fill="#FFFFFF" d="M163.791,441.354c-2.43,1.454-3.919,2.663-5.616,3.158
	c-0.472,0.139-2.447-2.273-2.207-2.756c0.873-1.751,2.393-3.181,3.668-4.731C160.773,438.21,161.911,439.396,163.791,441.354z"/>
<path fill-rule="evenodd" clip-rule="evenodd" fill="#FFFFFF" d="M1248.064-97.406c1.085,2.478,2.301,3.976,1.944,4.692
	c-0.849,1.71-2.44,3.051-3.732,4.541c-0.847-1.221-2.602-2.697-2.345-3.607C1244.406-93.467,1246.057-94.822,1248.064-97.406z"/>
<path fill-rule="evenodd" clip-rule="evenodd" fill="#FFFFFF" d="M533.928,489.893c-2.73,1.564-4.468,3.205-5.188,2.841
	c-1.614-0.818-2.835-2.558-3.906-4.132c-0.148-0.219,1.755-2.496,2.204-2.343C528.992,486.927,530.761,488.141,533.928,489.893z"/>
<path fill-rule="evenodd" clip-rule="evenodd" fill="#FFFFFF" d="M372.097-46.747c-2.555,1.933-4.398,3.328-6.243,4.725
	c-0.561-0.993-1.832-2.302-1.556-2.925C365.423-47.488,367.188-49.421,372.097-46.747z"/>
<path fill-rule="evenodd" clip-rule="evenodd" fill="#FFFFFF" d="M564.339,300.983c1.829-1.345,3.657-2.689,5.486-4.034
	c0.529,0.837,1.689,1.906,1.481,2.473C570.335,302.064,568.649,303.891,564.339,300.983z"/>
<path fill-rule="evenodd" clip-rule="evenodd" fill="#FFFFFF" d="M-518.522,58.737c2.877-1.982,4.814-3.317,6.751-4.652
	c0.438,1.073,1.524,2.438,1.196,3.165C-511.75,59.847-513.652,61.529-518.522,58.737z"/>
<path fill-rule="evenodd" clip-rule="evenodd" fill="#FFFFFF" d="M-117.446,792.677c-0.49-1.377-1.662-2.981-1.298-4.075
	c0.466-1.404,2.167-2.397,3.336-3.568c0.836,1.064,2.21,2.068,2.342,3.213c0.106,0.934-1.273,2.038-1.994,3.066
	C-115.855,791.768-116.651,792.223-117.446,792.677z"/>
<path fill-rule="evenodd" clip-rule="evenodd" fill="#FFFFFF" d="M-196.526-205.761c-2.124,1.255-3.375,2.541-4.613,2.53
	c-0.809-0.007-2.237-1.907-2.22-2.939c0.017-0.989,1.714-2.861,2.366-2.736C-199.684-208.656-198.584-207.311-196.526-205.761z"/>
<path fill-rule="evenodd" clip-rule="evenodd" fill="#FFFFFF" d="M323.366,171.797c1.482,1.38,3.382,2.764,3.223,3.065
	c-0.751,1.43-2.065,2.563-3.179,3.804c-0.957-1.158-2.346-2.2-2.697-3.519C320.526,174.448,322.141,173.269,323.366,171.797z"/>
<path fill-rule="evenodd" clip-rule="evenodd" fill="#FFFFFF" d="M-446.855,109.442c-1.986,1.579-3.176,3.245-4.373,3.25
	c-0.978,0.003-1.963-1.977-2.944-3.076c1.092-0.889,2.1-2.306,3.303-2.498C-449.907,106.965-448.707,108.302-446.855,109.442z"/>
<path fill-rule="evenodd" clip-rule="evenodd" fill="#FFFFFF" d="M760.967,585.371c2.125,2.617,3.562,4.389,5.001,6.16
	c-0.851,0.562-1.896,1.762-2.52,1.573C760.549,592.227,759.081,590.339,760.967,585.371z"/>
<path fill-rule="evenodd" clip-rule="evenodd" fill="#FFFFFF" d="M662.412-15.366c1.141,2.213,2.354,3.547,2.285,4.812
	c-0.043,0.788-2.069,2.097-3.12,2.019c-0.974-0.072-2.722-1.902-2.556-2.561C659.351-12.397,660.766-13.424,662.412-15.366z"/>
<path fill-rule="evenodd" clip-rule="evenodd" fill="#FFFFFF" d="M427.9,642.862c1.134,1.831,2.383,2.949,2.311,3.975
	c-0.078,1.11-1.389,2.135-2.161,3.196c-1.084-1.056-2.667-1.957-3.062-3.227C424.76,646.07,426.444,644.74,427.9,642.862z"/>
<path fill-rule="evenodd" clip-rule="evenodd" fill="#FFFFFF" d="M1203.923,90.084c0.988,1.948,2.105,3.143,1.986,4.198
	c-0.12,1.065-1.466,1.993-2.274,2.981c-1.106-1.038-2.96-1.99-3.091-3.139C1200.431,93.139,1202.288,91.928,1203.923,90.084z"/>
<path fill-rule="evenodd" clip-rule="evenodd" fill="#FFFFFF" d="M542.406-11.261c-1.592,1.343-2.985,3.061-3.482,2.831
	c-1.289-0.594-2.184-2.045-3.236-3.153c1.142-0.911,2.186-2.276,3.465-2.554C539.854-14.289,540.954-12.608,542.406-11.261z"/>
</svg>
