<?xml version="1.0" encoding="utf-8"?>
<!-- Generator: Adobe Illustrator 16.0.0, SVG Export Plug-In . SVG Version: 6.00 Build 0)  -->
<!DOCTYPE svg PUBLIC "-//W3C//DTD SVG 1.1//EN" "http://www.w3.org/Graphics/SVG/1.1/DTD/svg11.dtd">
<svg version="1.1" id="Layer_1" xmlns="http://www.w3.org/2000/svg" xmlns:xlink="http://www.w3.org/1999/xlink" x="0px" y="0px"
	 width="509.527px" height="764.826px" viewBox="0 0 509.527 764.826" enable-background="new 0 0 509.527 764.826"
	 xml:space="preserve">
<path fill="#FFFFFF" d="M51.043,629.4c0.998-3.048,1.418-7.797,3.898-10.899c2.331-2.916,6.838-4.092,9.144-5.354
	c-2.177-0.725-6.418-0.976-8.708-3.219c-2.375-2.325-2.861-6.581-3.864-9.187c-1.057,2.575-1.628,6.566-3.914,8.812
	c-2.331,2.291-6.348,2.865-9.299,4.059C47.365,615.54,50.492,614.73,51.043,629.4z"/>
<path fill="#FFFFFF" d="M378.153,159.245c-3.057-1.226-7.432-1.767-9.721-4.239c-2.305-2.49-2.537-6.899-3.353-9.448
	c-0.894,2.496-1.34,6.728-3.641,9.304c-2.185,2.446-6.31,3.158-9.829,4.745c10.824-0.241,13.173,6.762,13.293,15.891
	C365.017,165.687,368.9,159.592,378.153,159.245z"/>
<path fill="#FFFFFF" d="M365.032,447.14c-0.442,8.736-3.858,14.698-13.105,14.359c3.253,1.547,7.557,2.373,9.754,4.978
	c2.252,2.668,2.439,7.077,3.788,11.581c-0.483-10.355,4.319-15.44,13.875-16.356C369.946,460.995,366.8,461.66,365.032,447.14z"/>
<path fill="#FFFFFF" d="M237.465,462.501c-2.306-0.6-3.914-1.179-5.568-1.412c-2.753-0.389-4.13-1.755-4.317-4.595
	c-0.099-1.503-0.756-2.969-1.161-4.451c-0.267-0.088-0.535-0.177-0.802-0.266c0.364,7.165-3.258,10.506-10.195,10.652
	c3.028,1.245,6.46,1.422,8.067,3.226c1.715,1.924,1.705,5.385,2.586,8.69c0.954-3.29,1.014-6.767,2.776-8.646
	C230.569,463.868,234.029,463.669,237.465,462.501z"/>
<path fill="#FFFFFF" d="M237.119,160.32c-0.129-0.312-0.259-0.624-0.388-0.935c-1.643-0.414-3.266-0.976-4.934-1.209
	c-2.625-0.366-3.983-1.62-4.179-4.364c-0.111-1.558-0.783-3.077-1.203-4.613c-0.287-0.082-0.573-0.164-0.86-0.246
	c0.525,7.236-3.387,10.268-10.04,10.724c1.794,0.779,3.217,1.382,4.693,1.574c2.769,0.358,4.195,1.683,4.427,4.553
	c0.139,1.713,0.813,3.382,1.246,5.072c0.275,0.146,0.55,0.292,0.826,0.438C226.406,163.991,229.787,160.239,237.119,160.32z"/>
<path fill="#FFFFFF" d="M216.691,332.551c0.034-0.456,0.07-0.91,0.105-1.366c-11.304-0.818-22.606-1.636-33.909-2.453
	c-0.031,0.384-0.062,0.767-0.091,1.151C194.095,330.771,205.393,331.661,216.691,332.551z"/>
<path fill="#FFFFFF" d="M349.015,294.306c1.202-1.517,2.633-3.324,3.916-4.942c-1.357-1.62-2.854-3.407-4.238-5.059
	c-1.473,1.888-2.945,3.776-4.084,5.235C346.187,291.249,347.708,292.893,349.015,294.306z"/>
<path fill="#FFFFFF" d="M39.408,743.727c-1.476-1.762-2.962-3.536-4.278-5.106c-1.376,1.815-2.835,3.739-4.293,5.663
	c0.507-0.607,1.015-1.217,1.522-1.825c1.45,1.849,2.9,3.697,4.35,5.546c-0.445,0.24-0.89,0.479-1.335,0.719
	C36.756,747.012,38.137,745.301,39.408,743.727z"/>
<path fill="#FFFFFF" d="M218.479,324.223c0.188-0.333,0.377-0.665,0.566-0.998c-7.343-4.554-14.687-9.107-22.03-13.661
	c-0.194,0.314-0.389,0.628-0.583,0.942C203.78,315.078,211.129,319.65,218.479,324.223z"/>
<path fill="#FFFFFF" d="M204.762,35.115c-0.012-0.186-0.024-0.373-0.036-0.559c-5.831,0-11.661,0-17.491,0
	c0.006,0.186,0.011,0.373,0.017,0.559C193.089,35.115,198.925,35.115,204.762,35.115z"/>
<path fill="#FFFFFF" d="M187.188,337.317c0.001,0.199,0.003,0.398,0.005,0.598c5.854,0,11.709,0,17.564,0
	c-0.006-0.2-0.013-0.399-0.019-0.598C198.887,337.317,193.037,337.317,187.188,337.317z"/>
<path fill="#FFFFFF" d="M228.356,650.205c-0.117,0.146-0.235,0.29-0.354,0.435c4.352,3.891,8.703,7.781,13.054,11.672
	c0.118-0.145,0.235-0.29,0.353-0.436C237.059,657.985,232.708,654.096,228.356,650.205z"/>
<path fill="#FFFFFF" d="M255.694,34.25c-0.002-0.173-0.005-0.346-0.008-0.519c-5.002,0-10.004,0-15.006,0
	c-0.007,0.173-0.015,0.346-0.022,0.519C245.67,34.25,250.682,34.25,255.694,34.25z"/>
<path fill="#FFFFFF" d="M221.588,319.372c0.161-0.01,0.322-0.019,0.482-0.027c0-5.103,0-10.205,0-15.307
	c-0.161,0.015-0.322,0.028-0.482,0.043C221.588,309.178,221.588,314.275,221.588,319.372z"/>
<path fill="#FFFFFF" d="M221.595,16.506c0.163-0.007,0.325-0.015,0.486-0.022c0-5.102,0-10.203,0-15.305
	c-0.162,0.007-0.324,0.015-0.486,0.023C221.595,6.303,221.595,11.405,221.595,16.506z"/>
<path fill="#FFFFFF" d="M219.098,609.472c-0.163,0.007-0.327,0.016-0.49,0.023c0,5.104,0,10.209,0,15.312
	c0.163-0.007,0.327-0.014,0.49-0.021C219.098,619.682,219.098,614.577,219.098,609.472z"/>
<path fill="#FFFFFF" d="M255.708,337.275c0.003-0.202,0.005-0.404,0.007-0.606c-5.014,0-10.027,0-15.041,0
	c-0.002,0.202-0.005,0.405-0.007,0.606C245.68,337.275,250.694,337.275,255.708,337.275z"/>
<path fill="#FFFFFF" d="M255.752,640.075c0.005-0.208,0.01-0.416,0.016-0.624c-5.04,0-10.08,0-15.119,0
	c-0.004,0.208-0.008,0.416-0.013,0.624C245.675,640.075,250.713,640.075,255.752,640.075z"/>
<path fill="#FFFFFF" d="M247.45,314.06c-0.228-0.259-0.456-0.519-0.684-0.777c-4.005,3.672-8.012,7.343-12.017,11.016
	c0.249,0.271,0.496,0.542,0.744,0.814C239.479,321.428,243.464,317.744,247.45,314.06z"/>
<path fill="#FFFFFF" d="M234.726,21.364c0.256,0.277,0.512,0.555,0.768,0.832c3.983-3.69,7.967-7.379,11.95-11.069
	c-0.221-0.24-0.441-0.479-0.663-0.718C242.762,14.061,238.744,17.712,234.726,21.364z"/>
<path fill="#FFFFFF" d="M247.463,616.937c-0.232-0.251-0.464-0.503-0.696-0.755c-4.02,3.67-8.04,7.34-12.06,11.009
	c0.251,0.273,0.502,0.546,0.753,0.819C239.461,624.319,243.462,620.628,247.463,616.937z"/>
<path fill="#FFFFFF" d="M233.363,641.135c-0.06,0.276-0.119,0.551-0.178,0.826c4.731,1.024,9.463,2.049,14.195,3.073
	c0.064-0.296,0.128-0.591,0.192-0.887C242.836,643.144,238.1,642.14,233.363,641.135z"/>
<path fill="#FFFFFF" d="M196.561,38.059c0.066,0.328,0.134,0.655,0.2,0.983c4.615-0.871,9.229-1.742,13.843-2.613
	c-0.05-0.268-0.099-0.535-0.148-0.803C205.824,36.436,201.193,37.247,196.561,38.059z"/>
<path fill="#FFFFFF" d="M210.416,339.402c0.009-0.3,0.017-0.601,0.025-0.902c-4.693,0.831-9.387,1.661-14.081,2.491
	c0.055,0.318,0.11,0.636,0.165,0.954C201.156,341.098,205.786,340.25,210.416,339.402z"/>
<path fill="#FFFFFF" d="M248.13,29.729c-0.039-0.288-0.077-0.577-0.116-0.865c-5.107,0.619-10.214,1.238-15.322,1.857
	c0.035,0.263,0.072,0.526,0.107,0.789C237.909,30.916,243.02,30.322,248.13,29.729z"/>
<path fill="#FFFFFF" d="M232.759,636.46c0.033,0.289,0.065,0.577,0.098,0.866c5.064-0.611,10.129-1.224,15.194-1.835
	c-0.038-0.278-0.076-0.557-0.113-0.835C242.878,635.258,237.819,635.859,232.759,636.46z"/>
<path fill="#FFFFFF" d="M248.133,332.648c-0.037-0.296-0.075-0.591-0.111-0.888c-5.128,0.609-10.255,1.218-15.382,1.827
	c0.035,0.275,0.07,0.552,0.104,0.827C237.874,333.826,243.003,333.237,248.133,332.648z"/>
<path fill="#FFFFFF" d="M210.543,642.245c-0.052-0.279-0.104-0.56-0.156-0.839c-4.584,0.822-9.169,1.646-13.754,2.468
	c0.058,0.309,0.116,0.617,0.174,0.926C201.385,643.948,205.964,643.096,210.543,642.245z"/>
<path fill="#FFFFFF" d="M233.341,35.389c-0.056,0.27-0.11,0.54-0.165,0.809c4.713,1.002,9.426,2.005,14.14,3.008
	c0.06-0.293,0.12-0.586,0.179-0.879C242.777,37.349,238.059,36.369,233.341,35.389z"/>
<path fill="#FFFFFF" d="M233.436,338.261c-0.06,0.292-0.121,0.583-0.181,0.875c4.709,0.997,9.419,1.994,14.128,2.991
	c0.063-0.294,0.125-0.59,0.188-0.885C242.859,340.248,238.147,339.255,233.436,338.261z"/>
<path fill="#FFFFFF" d="M227.454,615.454c-0.291-0.038-0.582-0.076-0.874-0.114c-0.958,4.409-1.917,8.818-2.875,13.227
	c0.239,0.053,0.479,0.104,0.719,0.156C225.433,624.3,226.444,619.877,227.454,615.454z"/>
<path fill="#FFFFFF" d="M242.413,359.187c0.203-0.188,0.405-0.375,0.608-0.562c-2.642-2.917-5.284-5.835-7.925-8.753
	c-0.243,0.232-0.486,0.464-0.729,0.696C237.049,353.44,239.73,356.313,242.413,359.187z"/>
<path fill="#FFFFFF" d="M223.715,22.666c0.247,0.099,0.494,0.198,0.74,0.298c0.972-4.398,1.943-8.797,2.914-13.195
	c-0.262-0.054-0.525-0.107-0.787-0.161C225.627,13.96,224.671,18.312,223.715,22.666z"/>
<path fill="#FFFFFF" d="M227.397,312.8c-0.291-0.042-0.583-0.083-0.873-0.125c-0.945,4.345-1.89,8.69-2.835,13.036
	c0.248,0.053,0.495,0.107,0.743,0.161C225.42,321.515,226.408,317.157,227.397,312.8z"/>
<path fill="#FFFFFF" d="M235.087,47.009c-0.235,0.222-0.47,0.443-0.705,0.665c2.653,2.838,5.307,5.677,7.961,8.515
	c0.188-0.178,0.378-0.356,0.567-0.535C240.303,52.772,237.694,49.891,235.087,47.009z"/>
<path fill="#FFFFFF" d="M235.622,609.799c-0.28-0.109-0.561-0.219-0.841-0.327c-1.337,3.182-2.675,6.363-4.013,9.545
	c0.309,0.121,0.619,0.243,0.928,0.364C233.005,616.188,234.313,612.993,235.622,609.799z"/>
<path fill="#FFFFFF" d="M221.936,370.226c0.127-0.03,0.255-0.061,0.382-0.091c0-5.076,0-10.151,0-15.226
	c-0.127,0.006-0.255,0.013-0.382,0.02C221.936,360.027,221.936,365.126,221.936,370.226z"/>
<path fill="#FFFFFF" d="M222.402,52.108c-0.119,0.005-0.237,0.01-0.355,0.015c0,5.046,0,10.092,0,15.138
	c0.119-0.004,0.237-0.008,0.355-0.013C222.402,62.202,222.402,57.155,222.402,52.108z"/>
<path fill="#FFFFFF" d="M221.9,673.029c0.13,0.031,0.259,0.063,0.389,0.095c0-4.978,0-9.956,0-14.934
	c-0.129,0.007-0.259,0.015-0.389,0.021C221.9,663.15,221.9,668.09,221.9,673.029z"/>
<path fill-rule="evenodd" clip-rule="evenodd" fill="#FFFFFF" d="M509.527,238.489c-8.539-1.614-17.079-3.228-25.857-4.888
	c1.088-2.218,2.146-4.375,3.523-7.182c-2.991,1.556-5.309,2.762-7.772,4.044c-2.078-8.143-4.051-15.874-6.249-24.492
	c-1.871,8.876-3.531,16.757-5.218,24.754c-2.853-1.184-5.391-2.238-8.613-3.575c1.82,2.821,3.207,4.97,4.83,7.485
	c-5.166,1.157-10.106,2.264-15.309,3.429c-1.405,0.991-2.714,2.105-4.594,2.184c-0.098,0.004-0.175-0.021-0.242-0.056
	c-0.116,0.362-0.216,0.729-0.316,1.095c0.82,0.755,1.77,1.285,2.941,1.479c0.178,0.029,0.278,0.129,0.326,0.251
	c5.604,0.962,11.095,1.906,16.874,2.899c-1.341,2.396-2.446,4.374-3.552,6.351c0.18,0.142,0.359,0.284,0.539,0.425
	c2.312-1.218,4.625-2.437,7.171-3.779c2.343,8.29,4.585,16.219,7.066,25.002c1.748-8.696,3.324-16.545,4.945-24.613
	c2.715,0.958,4.839,1.708,7.618,2.688c-1.594-2.658-2.751-4.59-4.258-7.104c8.939-2.007,17.523-3.934,26.107-5.861
	C509.502,238.849,509.515,238.669,509.527,238.489z"/>
<g>
	<path fill="#FFFFFF" d="M436.651,44.053c-7.854-5.299-18.652-2.839-23.868,4.919c-5.15,7.66-3.394,17.954,3.871,22.687
		c6.205,4.042,17.068,3.497,20.019-1.004c-9.206,2.049-13.637,1.322-16.963-3.443c-3.586-5.134-3.902-10.801-0.78-16.236
		C422.726,44.367,428.54,41.831,436.651,44.053z"/>
	<path fill="#FFFFFF" d="M406.765,59.575c-0.012-0.456-0.023-0.912-0.035-1.368c-11.304,0.835-22.607,1.67-33.911,2.504
		c0.024,0.38,0.05,0.761,0.074,1.141C384.183,61.093,395.474,60.333,406.765,59.575z"/>
	<path fill="#FFFFFF" d="M464.926,19.029c-0.284-0.277-0.568-0.554-0.853-0.832c-8.231,7.923-16.463,15.847-24.695,23.77
		c0.283,0.295,0.566,0.589,0.849,0.884C448.459,34.911,456.692,26.97,464.926,19.029z"/>
	<path fill="#FFFFFF" d="M391.825,96.568c0.295,0.247,0.588,0.493,0.883,0.74c6.982-8.037,13.966-16.074,20.949-24.11
		c-0.323-0.281-0.646-0.562-0.97-0.844C405.733,80.426,398.779,88.497,391.825,96.568z"/>
	<path fill="#FFFFFF" d="M427.958,78.188c-0.357,0.01-0.716,0.021-1.073,0.031c0.357,11.135,0.715,22.27,1.072,33.405
		c0.337-0.009,0.673-0.019,1.009-0.027C428.63,100.46,428.294,89.325,427.958,78.188z"/>
	<path fill="#FFFFFF" d="M426.271,5.296c-0.19,0.006-0.381,0.012-0.571,0.019c0,10.744,0,21.489,0,32.232
		c0.19-0.002,0.381-0.005,0.571-0.008C426.271,26.792,426.271,16.044,426.271,5.296z"/>
	<path fill="#FFFFFF" d="M447.517,101.87c0.306-0.168,0.612-0.336,0.919-0.504c-3.982-8.482-7.966-16.965-11.948-25.448
		c-0.35,0.164-0.698,0.328-1.047,0.492C439.466,84.896,443.491,93.383,447.517,101.87z"/>
	<path fill="#FFFFFF" d="M410.688,103.426c0.348,0.126,0.695,0.253,1.043,0.38c2.93-8.895,5.859-17.79,8.789-26.684
		c-0.368-0.119-0.736-0.237-1.104-0.356C416.507,85.652,413.598,94.539,410.688,103.426z"/>
	<path fill="#FFFFFF" d="M392.116,21.204c-0.26,0.246-0.52,0.492-0.778,0.738c6.81,7.129,13.619,14.258,20.429,21.388
		c0.25-0.237,0.501-0.475,0.751-0.713C405.717,35.479,398.916,28.341,392.116,21.204z"/>
	<path fill="#FFFFFF" d="M383.995,39.71c7.174,5.261,15.361,8.166,23.868,10.331C399.907,46.597,391.95,43.154,383.995,39.71z"/>
	<path fill="#FFFFFF" d="M444.63,47.911c0.164,0.353,0.327,0.705,0.49,1.057c7.54-3.265,15.08-6.529,22.62-9.793
		c-0.147-0.347-0.296-0.694-0.443-1.04C459.741,41.394,452.186,44.652,444.63,47.911z"/>
	<path fill="#FFFFFF" d="M385.79,76.911c0.154,0.335,0.309,0.67,0.463,1.005c7.566-3.462,15.133-6.924,22.7-10.387
		c-0.164-0.355-0.328-0.71-0.492-1.066C400.903,69.945,393.347,73.428,385.79,76.911z"/>
	<path fill="#FFFFFF" d="M432.436,38.102c0.372,0.152,0.742,0.304,1.114,0.455c3.105-7.509,6.211-15.019,9.317-22.528
		c-0.306-0.128-0.61-0.256-0.915-0.383C438.78,23.131,435.608,30.617,432.436,38.102z"/>
	<path fill="#FFFFFF" d="M418.593,38.975c0.296-0.123,0.592-0.247,0.888-0.369c-2.68-6.309-5.359-12.617-8.039-18.925
		c-0.281,0.117-0.562,0.234-0.845,0.352C413.263,26.346,415.928,32.661,418.593,38.975z"/>
	<path fill="#FFFFFF" d="M451.194,61.296c0.027-0.204,0.055-0.408,0.082-0.612c-1.42-0.21-2.839-0.42-4.094-0.606
		c0.081,1.07-0.029,2.339,0.215,2.412c3.653,1.085,7.354,2.014,11.042,2.979c0.083-0.316,0.166-0.632,0.249-0.948
		c-2.94-0.863-5.881-1.726-9.436-2.769C450.396,61.483,450.795,61.389,451.194,61.296z"/>
	<path fill="#FFFFFF" d="M446.369,51.621c0.074,0.37,0.149,0.739,0.224,1.109c3.469-0.761,6.938-1.521,10.406-2.281
		c-0.068-0.308-0.136-0.616-0.204-0.923C453.319,50.223,449.845,50.922,446.369,51.621z"/>
	<path fill="#FFFFFF" d="M442.721,44.566c0.237,0.292,0.476,0.584,0.713,0.876c3.028-2.02,6.058-4.039,9.086-6.058
		c-0.202-0.292-0.404-0.583-0.606-0.875C448.849,40.528,445.784,42.547,442.721,44.566z"/>
	<path fill="#FFFFFF" d="M453.561,75.294c0.198-0.307,0.395-0.614,0.592-0.921c-3.156-2.035-6.312-4.071-9.468-6.106
		c-0.177,0.276-0.354,0.552-0.531,0.828C447.289,71.162,450.425,73.228,453.561,75.294z"/>
	<path fill="#FFFFFF" d="M436.514,39.891c0.257,0.169,0.513,0.339,0.77,0.508c2.143-3.196,4.284-6.392,6.427-9.588
		c-0.247-0.164-0.494-0.328-0.741-0.492C440.816,33.51,438.665,36.7,436.514,39.891z"/>
	<path fill="#FFFFFF" d="M410.503,70.985c-0.229-0.278-0.458-0.556-0.687-0.834c-2.484,1.843-4.969,3.686-7.453,5.528
		c0.228,0.293,0.456,0.586,0.685,0.879C405.533,74.699,408.019,72.842,410.503,70.985z"/>
	<path fill="#FFFFFF" d="M431.502,27.445c-0.294-0.021-0.588-0.042-0.883-0.063c-0.459,3.421-0.918,6.843-1.377,10.265
		c0.315,0.04,0.631,0.079,0.946,0.118C430.626,34.325,431.064,30.885,431.502,27.445z"/>
	<g>
		<path fill-rule="evenodd" clip-rule="evenodd" fill="#FFFFFF" d="M477.753,57.891v-1.449c-0.299,0.112-0.666,0.179-1.142,0.182
			c-8.874,0.059-17.747,0.32-26.62,0.499c-1.319,0.026-2.64,0.004-3.959,0.004c0.001,0.255,0.001,0.51,0.002,0.765H477.753z"/>
		<path fill-rule="evenodd" clip-rule="evenodd" fill="#FFFFFF" d="M472.503,75.913c-0.02-0.206,0.075-0.338,0.208-0.411
			c-9.425-3.616-18.597-7.136-27.76-10.651c-0.132,0.336-0.264,0.673-0.395,1.009c9.336,3.627,18.669,7.255,27.991,10.877
			C472.533,76.463,472.529,76.188,472.503,75.913z"/>
		<path fill-rule="evenodd" clip-rule="evenodd" fill="#FFFFFF" d="M467.753,94.656c-9.139-7.533-17.959-14.804-26.769-22.066
			c-0.246,0.295-0.492,0.59-0.738,0.884c9.142,7.536,18.289,15.076,27.507,22.674V94.656z"/>
	</g>
</g>
<path fill-rule="evenodd" clip-rule="evenodd" fill="#FFFFFF" d="M59.996-6.825c1.261,3.676,2.638,7.317,3.739,11.041
	c0.628,2.124,1.637,2.766,3.902,2.722c8.85-0.173,17.705-0.07,26.988,0.674c-7.854,5.28-15.708,10.56-23.444,15.76
	c3.452,11.567,6.808,22.814,10.165,34.061c-0.148,0.213-0.296,0.427-0.445,0.641c-9.452-6.95-18.904-13.901-28.625-21.05
	c-9.662,6.947-19.187,13.795-29.347,21.1c4.542-10.989,8.8-21.291,12.959-31.355c-8.85-6.437-17.459-12.699-26.069-18.961
	c0.089-0.335,0.179-0.67,0.268-1.005c2.492,0,4.984-0.005,7.477,0.001c7.689,0.018,15.38-0.036,23.067,0.114
	c1.98,0.039,2.793-0.602,3.473-2.434c1.427-3.839,3.207-7.546,4.841-11.308C52.629-6.825,56.312-6.825,59.996-6.825z"/>
<path fill-rule="evenodd" clip-rule="evenodd" fill="#FFFFFF" d="M342.745,775.125c-1.321-0.624-2.588-1.439-3.974-1.837
	c-4.958-1.42-9.958-2.697-14.94-4.56c5.402-1.34,10.775-2.814,16.221-3.947c2.035-0.423,2.957-1.326,3.398-3.229
	c1.289-5.561,2.675-11.099,4.707-16.75c0.744,2.978,2.048,5.941,2.12,8.936c0.192,7.95,4.171,11.646,11.842,12.401
	c3.392,0.335,6.698,1.528,10.699,2.489c-7.228,2.311-13.775,4.404-20.323,6.497C349.245,775.125,345.995,775.125,342.745,775.125z"
	/>
<path fill-rule="evenodd" clip-rule="evenodd" fill="#FFFFFF" d="M225.096,775.125c-0.329-1.902-0.477-3.864-1.068-5.681
	c-0.265-0.814-1.317-1.615-2.19-1.938c-1.912-0.709-3.938-1.107-5.945-1.641c0.089-0.22,0.14-0.505,0.216-0.513
	c6.27-0.572,9.886-3.723,10.111-10.826c0.271,7.188,3.799,10.598,10.965,10.31c-0.146,0.272-0.293,0.545-0.44,0.816
	c-0.825,0.294-1.636,0.641-2.478,0.873c-6.528,1.804-6.53,1.797-7.222,8.6C226.396,775.125,225.746,775.125,225.096,775.125z"/>
<path fill-rule="evenodd" clip-rule="evenodd" fill="#FFFFFF" d="M378.153,159.245c-9.253,0.347-13.137,6.442-13.25,16.252
	c-0.12-9.129-2.469-16.132-13.293-15.891c3.52-1.587,7.645-2.299,9.829-4.745c2.301-2.576,2.747-6.809,3.641-9.304
	c0.815,2.549,1.048,6.958,3.353,9.448C370.722,157.478,375.097,158.019,378.153,159.245z"/>
<path fill-rule="evenodd" clip-rule="evenodd" fill="#FFFFFF" d="M365.032,447.14c1.768,14.521,4.914,13.855,14.312,14.562
	c-9.556,0.916-14.358,6.001-13.875,16.356c-1.349-4.504-1.536-8.913-3.788-11.581c-2.197-2.604-6.501-3.431-9.754-4.978
	C361.174,461.838,364.59,455.876,365.032,447.14z"/>
<path fill-rule="evenodd" clip-rule="evenodd" fill="#FFFFFF" d="M237.465,462.501c-3.436,1.168-6.896,1.367-8.615,3.199
	c-1.762,1.879-1.822,5.355-2.776,8.646c-0.881-3.306-0.871-6.767-2.586-8.69c-1.607-1.804-5.039-1.98-8.067-3.226
	c6.937-0.146,10.559-3.487,10.195-10.652c0.268,0.089,0.535,0.178,0.802,0.266c0.405,1.482,1.062,2.948,1.161,4.451
	c0.187,2.84,1.563,4.206,4.317,4.595C233.552,461.322,235.159,461.901,237.465,462.501z"/>
<path fill-rule="evenodd" clip-rule="evenodd" fill="#FFFFFF" d="M237.119,160.32c-7.332-0.081-10.713,3.67-10.411,10.994
	c-0.276-0.146-0.551-0.292-0.826-0.438c-0.433-1.689-1.107-3.359-1.246-5.072c-0.232-2.87-1.658-4.195-4.427-4.553
	c-1.477-0.191-2.899-0.794-4.693-1.574c6.653-0.457,10.565-3.488,10.04-10.724c0.287,0.082,0.573,0.164,0.86,0.246
	c0.419,1.537,1.092,3.055,1.203,4.613c0.195,2.745,1.554,3.998,4.179,4.364c1.668,0.233,3.291,0.795,4.934,1.209
	C236.86,159.697,236.99,160.009,237.119,160.32z"/>
<path fill-rule="evenodd" clip-rule="evenodd" fill="#FFFFFF" d="M349.015,294.306c-1.307-1.414-2.828-3.058-4.406-4.765
	c1.139-1.459,2.611-3.347,4.084-5.235c1.385,1.651,2.881,3.438,4.238,5.059C351.647,290.982,350.217,292.789,349.015,294.306z"/>
<path fill-rule="evenodd" clip-rule="evenodd" fill="#FFFFFF" d="M204.762,35.115c-5.837,0-11.673,0-17.51,0
	c-0.006-0.186-0.011-0.373-0.017-0.559c5.83,0,11.66,0,17.491,0C204.738,34.743,204.75,34.929,204.762,35.115z"/>
<path fill-rule="evenodd" clip-rule="evenodd" fill="#FFFFFF" d="M187.188,337.317c5.85,0,11.7,0,17.55,0
	c0.006,0.199,0.013,0.398,0.019,0.598c-5.855,0-11.709,0-17.564,0C187.191,337.716,187.189,337.517,187.188,337.317z"/>
<path fill-rule="evenodd" clip-rule="evenodd" fill="#FFFFFF" d="M193.005,632.25c5.837,0,11.673,0,17.51,0
	c0.009,0.187,0.019,0.373,0.027,0.56c-5.837,0-11.674,0-17.511,0C193.023,632.623,193.015,632.437,193.005,632.25z"/>
<path fill-rule="evenodd" clip-rule="evenodd" fill="#FFFFFF" d="M255.694,34.25c-5.012,0-10.024,0-15.036,0
	c0.007-0.173,0.015-0.346,0.022-0.519c5.002,0,10.004,0,15.006,0C255.688,33.904,255.691,34.078,255.694,34.25z"/>
<path fill-rule="evenodd" clip-rule="evenodd" fill="#FFFFFF" d="M221.588,319.372c0-5.097,0-10.194,0-15.291
	c0.161-0.015,0.322-0.028,0.482-0.043c0,5.102,0,10.204,0,15.307C221.91,319.354,221.749,319.362,221.588,319.372z"/>
<path fill-rule="evenodd" clip-rule="evenodd" fill="#FFFFFF" d="M221.595,16.506c0-5.101,0-10.203,0-15.304
	c0.163-0.008,0.325-0.016,0.486-0.023c0,5.102,0,10.203,0,15.305C221.92,16.491,221.758,16.499,221.595,16.506z"/>
<path fill-rule="evenodd" clip-rule="evenodd" fill="#FFFFFF" d="M214.733,620.369c0.62,5.067,1.24,10.134,1.86,15.201
	c-0.161,0.027-0.322,0.054-0.483,0.08c-0.62-5.065-1.24-10.133-1.86-15.199C214.411,620.424,214.572,620.396,214.733,620.369z"/>
<path fill-rule="evenodd" clip-rule="evenodd" fill="#FFFFFF" d="M255.708,337.275c-5.014,0-10.027,0-15.041,0
	c0.002-0.202,0.005-0.404,0.007-0.606c5.014,0,10.027,0,15.041,0C255.713,336.871,255.71,337.073,255.708,337.275z"/>
<path fill-rule="evenodd" clip-rule="evenodd" fill="#FFFFFF" d="M255.752,640.075c-5.039,0-10.077,0-15.116,0
	c0.004-0.208,0.008-0.416,0.013-0.624c5.04,0,10.08,0,15.119,0C255.762,639.659,255.757,639.867,255.752,640.075z"/>
<path fill-rule="evenodd" clip-rule="evenodd" fill="#FFFFFF" d="M247.45,314.06c-3.986,3.684-7.971,7.368-11.957,11.052
	c-0.248-0.272-0.496-0.543-0.744-0.814c4.005-3.672,8.012-7.344,12.017-11.016C246.994,313.542,247.222,313.801,247.45,314.06z"/>
<path fill-rule="evenodd" clip-rule="evenodd" fill="#FFFFFF" d="M234.726,21.364c4.018-3.652,8.036-7.304,12.054-10.956
	c0.222,0.239,0.442,0.479,0.663,0.718c-3.983,3.69-7.966,7.379-11.95,11.069C235.237,21.919,234.981,21.642,234.726,21.364z"/>
<path fill-rule="evenodd" clip-rule="evenodd" fill="#FFFFFF" d="M247.463,616.937c-4.001,3.691-8.002,7.383-12.003,11.073
	c-0.251-0.273-0.501-0.546-0.753-0.819c4.02-3.669,8.04-7.339,12.06-11.009C246.999,616.434,247.23,616.686,247.463,616.937z"/>
<path fill-rule="evenodd" clip-rule="evenodd" fill="#FFFFFF" d="M232.937,646.306c4.737,1.005,9.473,2.009,14.209,3.013
	c-0.064,0.296-0.128,0.591-0.192,0.887c-4.732-1.024-9.464-2.049-14.195-3.073C232.818,646.856,232.877,646.582,232.937,646.306z"/>
<path fill-rule="evenodd" clip-rule="evenodd" fill="#FFFFFF" d="M196.561,38.059c4.632-0.812,9.263-1.623,13.895-2.434
	c0.049,0.268,0.099,0.536,0.148,0.803c-4.614,0.871-9.229,1.742-13.843,2.613C196.695,38.714,196.627,38.386,196.561,38.059z"/>
<path fill-rule="evenodd" clip-rule="evenodd" fill="#FFFFFF" d="M210.416,339.402c-4.63,0.848-9.26,1.695-13.891,2.542
	c-0.055-0.318-0.109-0.635-0.165-0.954c4.693-0.83,9.387-1.66,14.081-2.491C210.433,338.801,210.425,339.103,210.416,339.402z"/>
<path fill-rule="evenodd" clip-rule="evenodd" fill="#FFFFFF" d="M248.13,29.729c-5.11,0.594-10.221,1.187-15.331,1.781
	c-0.035-0.263-0.072-0.526-0.107-0.789c5.108-0.619,10.215-1.238,15.322-1.857C248.053,29.152,248.091,29.44,248.13,29.729z"/>
<path fill-rule="evenodd" clip-rule="evenodd" fill="#FFFFFF" d="M232.759,636.46c5.06-0.601,10.12-1.202,15.179-1.804
	c0.038,0.278,0.075,0.557,0.113,0.835c-5.065,0.611-10.13,1.224-15.194,1.835C232.824,637.037,232.792,636.749,232.759,636.46z"/>
<path fill-rule="evenodd" clip-rule="evenodd" fill="#FFFFFF" d="M248.133,332.648c-5.129,0.589-10.259,1.178-15.389,1.766
	c-0.035-0.275-0.07-0.552-0.104-0.827c5.127-0.609,10.254-1.218,15.382-1.827C248.058,332.057,248.096,332.352,248.133,332.648z"/>
<path fill-rule="evenodd" clip-rule="evenodd" fill="#FFFFFF" d="M215.018,646.825c-4.046,2.307-8.091,4.614-12.137,6.922
	c-0.156-0.272-0.312-0.545-0.468-0.817c4.061-2.281,8.122-4.564,12.182-6.846C214.736,646.331,214.877,646.579,215.018,646.825z"/>
<path fill-rule="evenodd" clip-rule="evenodd" fill="#FFFFFF" d="M233.341,35.389c4.718,0.979,9.436,1.959,14.154,2.938
	c-0.06,0.293-0.119,0.586-0.179,0.879c-4.713-1.003-9.427-2.006-14.14-3.008C233.231,35.929,233.286,35.659,233.341,35.389z"/>
<path fill-rule="evenodd" clip-rule="evenodd" fill="#FFFFFF" d="M233.436,338.261c4.712,0.994,9.424,1.987,14.136,2.981
	c-0.063,0.295-0.125,0.59-0.188,0.885c-4.709-0.997-9.419-1.994-14.128-2.991C233.315,338.844,233.375,338.553,233.436,338.261z"/>
<path fill-rule="evenodd" clip-rule="evenodd" fill="#FFFFFF" d="M227.454,615.454c-1.01,4.423-2.021,8.846-3.03,13.269
	c-0.239-0.052-0.479-0.104-0.719-0.156c0.958-4.408,1.917-8.817,2.875-13.227C226.872,615.378,227.163,615.416,227.454,615.454z"/>
<path fill-rule="evenodd" clip-rule="evenodd" fill="#FFFFFF" d="M242.413,359.187c-2.682-2.873-5.364-5.746-8.046-8.62
	c0.243-0.232,0.486-0.464,0.729-0.696c2.641,2.918,5.283,5.836,7.925,8.753C242.817,358.812,242.615,358.999,242.413,359.187z"/>
<path fill-rule="evenodd" clip-rule="evenodd" fill="#FFFFFF" d="M223.715,22.666c0.956-4.353,1.912-8.706,2.867-13.058
	c0.262,0.054,0.525,0.107,0.787,0.161c-0.971,4.398-1.942,8.797-2.914,13.195C224.209,22.864,223.962,22.765,223.715,22.666z"/>
<path fill-rule="evenodd" clip-rule="evenodd" fill="#FFFFFF" d="M227.397,312.8c-0.989,4.357-1.977,8.714-2.965,13.072
	c-0.248-0.054-0.495-0.107-0.743-0.161c0.945-4.346,1.89-8.691,2.835-13.036C226.814,312.717,227.106,312.758,227.397,312.8z"/>
<path fill-rule="evenodd" clip-rule="evenodd" fill="#FFFFFF" d="M235.087,47.009c2.607,2.882,5.216,5.763,7.823,8.645
	c-0.189,0.178-0.378,0.356-0.567,0.535c-2.654-2.838-5.308-5.676-7.961-8.515C234.617,47.453,234.852,47.231,235.087,47.009z"/>
<path fill-rule="evenodd" clip-rule="evenodd" fill="#FFFFFF" d="M235.622,609.799c-1.308,3.194-2.617,6.389-3.926,9.582
	c-0.309-0.121-0.619-0.243-0.928-0.364c1.337-3.182,2.675-6.363,4.013-9.545C235.061,609.58,235.341,609.689,235.622,609.799z"/>
<path fill-rule="evenodd" clip-rule="evenodd" fill="#FFFFFF" d="M221.936,370.226c0-5.099,0-10.198,0-15.297
	c0.127-0.006,0.255-0.013,0.382-0.02c0,5.075,0,10.15,0,15.226C222.191,370.165,222.063,370.196,221.936,370.226z"/>
<path fill-rule="evenodd" clip-rule="evenodd" fill="#FFFFFF" d="M222.402,52.108c0,5.047,0,10.093,0,15.14
	c-0.119,0.004-0.237,0.008-0.355,0.013c0-5.046,0-10.092,0-15.138C222.166,52.118,222.284,52.113,222.402,52.108z"/>
<path fill-rule="evenodd" clip-rule="evenodd" fill="#FFFFFF" d="M221.9,673.029c0-4.939,0-9.879,0-14.817
	c0.13-0.007,0.259-0.015,0.389-0.021c0,4.978,0,9.956,0,14.934C222.159,673.093,222.03,673.061,221.9,673.029z"/>
<g>
	<path fill="#FFFFFF" d="M123.107,498.472c-6.962-5.618-18.399-2.525-23.184,3.864c-5.553,7.414-4.551,17.872,2.273,23.029
		c6.195,4.682,17.278,4.521,21.599-1.043c-7.169,3.465-13.31,2.867-17.7-3.05c-3.815-5.141-3.737-11.137-0.37-16.517
		C109.608,498.552,115.373,496.083,123.107,498.472z"/>
	<path fill="#FFFFFF" d="M59.106,515.054c0.026,0.383,0.051,0.767,0.077,1.149c11.407-0.771,22.814-1.544,34.221-2.314
		c-0.03-0.447-0.062-0.895-0.092-1.341C81.911,513.383,70.508,514.219,59.106,515.054z"/>
	<path fill="#FFFFFF" d="M125.871,496.289c0.294,0.301,0.589,0.603,0.883,0.904c8.17-7.914,16.341-15.829,24.511-23.743
		c-0.272-0.28-0.544-0.561-0.816-0.841C142.256,480.503,134.064,488.396,125.871,496.289z"/>
	<path fill="#FFFFFF" d="M155.574,549.954c0.238-0.287,0.477-0.573,0.715-0.86c-9.326-7.711-18.65-15.423-27.976-23.134
		c-0.25,0.3-0.499,0.599-0.748,0.898C136.902,534.557,146.238,542.255,155.574,549.954z"/>
	<path fill="#FFFFFF" d="M133.252,510.338c-0.001,0.292-0.002,0.583-0.002,0.875c13.012,0,26.023,0,39.035,0
		c0.001-0.292,0.001-0.583,0.001-0.875C159.275,510.338,146.263,510.338,133.252,510.338z"/>
	<path fill="#FFFFFF" d="M100.15,527.561c-0.195-0.195-0.391-0.393-0.585-0.589c-8.055,7.177-14.118,16.1-21.241,24.094
		c0.253,0.224,0.506,0.446,0.759,0.67C86.106,543.677,93.128,535.619,100.15,527.561z"/>
	<path fill="#FFFFFF" d="M112.125,491.841c0.174-0.021,0.347-0.043,0.521-0.064c0-10.722,0-21.443,0-32.165
		c-0.174,0.013-0.347,0.024-0.521,0.037C112.125,470.379,112.125,481.109,112.125,491.841z"/>
	<path fill="#FFFFFF" d="M161.482,530.687c0.182-0.314,0.364-0.63,0.545-0.944c-9.93-3.854-19.859-7.707-29.789-11.56
		c-0.141,0.358-0.281,0.718-0.422,1.076C141.706,523.068,151.594,526.877,161.482,530.687z"/>
	<path fill="#FFFFFF" d="M114.844,532.555c-0.528,0.024-1.056,0.049-1.584,0.074c0.41,11.133,0.82,22.266,1.23,33.398
		c0.118-0.008,0.236-0.016,0.354-0.024C114.844,554.854,114.844,543.704,114.844,532.555z"/>
	<path fill="#FFFFFF" d="M122.912,530.188c-0.348,0.166-0.696,0.334-1.044,0.5c4.091,8.578,8.181,17.156,12.271,25.734
		c0.306-0.146,0.611-0.293,0.917-0.439C131.007,547.384,126.959,538.785,122.912,530.188z"/>
	<path fill="#FFFFFF" d="M78.61,475.577c-0.245,0.232-0.489,0.466-0.734,0.698c6.816,7.164,13.632,14.329,20.448,21.493
		c0.261-0.248,0.522-0.497,0.783-0.745C92.274,489.874,85.442,482.726,78.61,475.577z"/>
	<path fill="#FFFFFF" d="M97.197,557.766c0.359,0.078,0.718,0.157,1.077,0.235c2.876-8.76,5.752-17.52,8.628-26.279
		c-0.366-0.114-0.733-0.229-1.099-0.345C102.934,540.173,100.066,548.97,97.197,557.766z"/>
	<path fill="#FFFFFF" d="M72.268,531.226c0.157,0.341,0.314,0.682,0.472,1.022c7.583-3.457,15.166-6.914,22.749-10.371
		c-0.167-0.365-0.335-0.73-0.503-1.095C87.412,524.264,79.84,527.744,72.268,531.226z"/>
	<path fill="#FFFFFF" d="M93.874,505.375c0.146-0.336,0.29-0.671,0.436-1.007c-7.908-3.427-15.816-6.853-23.724-10.279
		c-0.146,0.337-0.291,0.673-0.437,1.009C78.057,498.523,85.966,501.949,93.874,505.375z"/>
	<path fill="#FFFFFF" d="M118.896,492.438c0.375,0.171,0.75,0.341,1.125,0.512c3.133-7.573,6.265-15.146,9.397-22.718
		c-0.304-0.129-0.608-0.256-0.912-0.384C125.303,477.378,122.1,484.908,118.896,492.438z"/>
	<path fill="#FFFFFF" d="M154.064,493.599c-0.154-0.369-0.309-0.737-0.462-1.105c-7.504,3.268-15.007,6.536-22.512,9.805
		c0.148,0.341,0.295,0.682,0.443,1.022C139.044,500.08,146.555,496.839,154.064,493.599z"/>
	<path fill="#FFFFFF" d="M98.094,474.401c-0.292,0.119-0.583,0.238-0.875,0.358c2.595,6.129,5.19,12.259,7.785,18.389
		c0.293-0.12,0.587-0.24,0.881-0.359C103.289,486.659,100.691,480.53,98.094,474.401z"/>
	<path fill="#FFFFFF" d="M144.843,517.812c0.089-0.34,0.177-0.681,0.266-1.021c-3.768-1.032-7.534-2.062-11.302-3.094
		c-0.094,0.364-0.189,0.728-0.284,1.091C137.297,515.797,141.07,516.805,144.843,517.812z"/>
	<path fill="#FFFFFF" d="M129.203,498.844c0.209,0.329,0.418,0.657,0.626,0.986c3.057-2.015,6.113-4.029,9.169-6.044
		c-0.196-0.299-0.392-0.599-0.588-0.897C135.342,494.874,132.272,496.858,129.203,498.844z"/>
	<path fill="#FFFFFF" d="M140.063,529.667c0.217-0.305,0.434-0.61,0.651-0.915c-3.132-2.03-6.263-4.061-9.396-6.092
		c-0.181,0.279-0.363,0.56-0.544,0.839C133.871,525.555,136.967,527.61,140.063,529.667z"/>
	<path fill="#FFFFFF" d="M130.109,485.362c-0.248-0.203-0.496-0.406-0.744-0.609c-2.133,3.198-4.265,6.396-6.397,9.596
		c0.248,0.162,0.495,0.324,0.743,0.487C125.844,491.678,127.977,488.521,130.109,485.362z"/>
	<path fill="#FFFFFF" d="M132.909,505.92c0.093,0.371,0.187,0.741,0.279,1.111c3.47-0.747,6.938-1.494,10.408-2.24
		c-0.065-0.311-0.131-0.62-0.197-0.931C139.903,504.547,136.406,505.233,132.909,505.92z"/>
	<path fill="#FFFFFF" d="M88.796,529.986c0.248,0.308,0.495,0.615,0.743,0.923c2.496-1.876,4.991-3.753,7.486-5.63
		c-0.202-0.268-0.405-0.535-0.606-0.803C93.877,526.312,91.336,528.149,88.796,529.986z"/>
	<path fill="#FFFFFF" d="M118.798,532.242c-0.279,0.068-0.56,0.136-0.839,0.203c0.753,3.207,1.506,6.414,2.259,9.621
		c0.313-0.076,0.626-0.152,0.939-0.229C120.371,538.64,119.584,535.441,118.798,532.242z"/>
	<path fill="#FFFFFF" d="M101.647,494.941c0.226-0.163,0.453-0.325,0.679-0.488c-2.053-3.015-4.105-6.028-6.158-9.042
		c-0.229,0.162-0.458,0.324-0.688,0.487C97.536,488.913,99.592,491.927,101.647,494.941z"/>
	<path fill-rule="evenodd" clip-rule="evenodd" fill="#FFFFFF" d="M123.107,498.472c-7.734-2.389-13.499,0.08-17.382,6.284
		c-3.368,5.38-3.445,11.376,0.37,16.517c4.39,5.917,10.531,6.515,17.7,3.05c-4.32,5.563-15.403,5.725-21.599,1.043
		c-6.824-5.157-7.826-15.615-2.273-23.029C104.708,495.946,116.145,492.854,123.107,498.472z"/>
	<path fill-rule="evenodd" clip-rule="evenodd" fill="#FFFFFF" d="M59.106,515.054c11.402-0.835,22.804-1.671,34.206-2.506
		c0.03,0.446,0.062,0.894,0.092,1.341c-11.407,0.771-22.814,1.543-34.221,2.314C59.158,515.82,59.132,515.437,59.106,515.054z"/>
	<path fill-rule="evenodd" clip-rule="evenodd" fill="#FFFFFF" d="M125.871,496.289c8.193-7.894,16.385-15.786,24.578-23.68
		c0.272,0.28,0.544,0.561,0.816,0.841c-8.17,7.914-16.341,15.829-24.511,23.743C126.46,496.892,126.166,496.59,125.871,496.289z"/>
	<path fill-rule="evenodd" clip-rule="evenodd" fill="#FFFFFF" d="M155.574,549.954c-9.336-7.699-18.672-15.397-28.009-23.096
		c0.25-0.3,0.499-0.599,0.748-0.898c9.325,7.711,18.65,15.423,27.976,23.134C156.051,549.381,155.812,549.667,155.574,549.954z"/>
	<path fill-rule="evenodd" clip-rule="evenodd" fill="#FFFFFF" d="M133.252,510.338c13.011,0,26.023,0,39.034,0
		c0,0.292,0,0.583-0.001,0.875c-13.012,0-26.023,0-39.035,0C133.25,510.921,133.25,510.63,133.252,510.338z"/>
	<path fill-rule="evenodd" clip-rule="evenodd" fill="#FFFFFF" d="M100.15,527.561c-7.022,8.059-14.044,16.116-21.067,24.175
		c-0.253-0.224-0.506-0.446-0.759-0.67c7.123-7.994,13.186-16.917,21.241-24.094C99.76,527.168,99.955,527.365,100.15,527.561z"/>
	<path fill-rule="evenodd" clip-rule="evenodd" fill="#FFFFFF" d="M112.125,491.841c0-10.731,0-21.462,0-32.192
		c0.174-0.013,0.347-0.024,0.521-0.037c0,10.722,0,21.443,0,32.165C112.472,491.798,112.299,491.819,112.125,491.841z"/>
	<path fill-rule="evenodd" clip-rule="evenodd" fill="#FFFFFF" d="M161.482,530.687c-9.888-3.81-19.777-7.618-29.665-11.428
		c0.141-0.358,0.281-0.718,0.422-1.076c9.93,3.853,19.859,7.706,29.789,11.56C161.846,530.057,161.665,530.372,161.482,530.687z"/>
	<path fill-rule="evenodd" clip-rule="evenodd" fill="#FFFFFF" d="M114.844,532.555c0,11.149,0,22.299,0,33.448
		c-0.118,0.009-0.236,0.017-0.354,0.024c-0.41-11.133-0.82-22.266-1.23-33.398C113.788,532.604,114.316,532.579,114.844,532.555z"/>
	<path fill-rule="evenodd" clip-rule="evenodd" fill="#FFFFFF" d="M122.912,530.188c4.048,8.598,8.096,17.196,12.144,25.795
		c-0.306,0.146-0.611,0.293-0.917,0.439c-4.09-8.578-8.18-17.156-12.271-25.734C122.216,530.521,122.563,530.354,122.912,530.188z"
		/>
	<path fill-rule="evenodd" clip-rule="evenodd" fill="#FFFFFF" d="M78.61,475.577c6.832,7.148,13.664,14.297,20.496,21.446
		c-0.261,0.248-0.522,0.497-0.783,0.745c-6.815-7.164-13.631-14.329-20.448-21.493C78.121,476.043,78.365,475.81,78.61,475.577z"/>
	<path fill-rule="evenodd" clip-rule="evenodd" fill="#FFFFFF" d="M97.197,557.766c2.869-8.796,5.737-17.593,8.606-26.389
		c0.366,0.115,0.733,0.23,1.099,0.345c-2.876,8.76-5.752,17.52-8.628,26.279C97.915,557.923,97.556,557.844,97.197,557.766z"/>
	<path fill-rule="evenodd" clip-rule="evenodd" fill="#FFFFFF" d="M72.268,531.226c7.572-3.481,15.145-6.962,22.717-10.443
		c0.168,0.364,0.336,0.729,0.503,1.095c-7.583,3.457-15.166,6.914-22.749,10.371C72.582,531.907,72.425,531.566,72.268,531.226z"/>
	<path fill-rule="evenodd" clip-rule="evenodd" fill="#FFFFFF" d="M93.874,505.375c-7.908-3.426-15.817-6.852-23.725-10.277
		c0.146-0.336,0.291-0.672,0.437-1.009c7.908,3.427,15.816,6.853,23.724,10.279C94.164,504.704,94.02,505.039,93.874,505.375z"/>
	<path fill-rule="evenodd" clip-rule="evenodd" fill="#FFFFFF" d="M118.896,492.438c3.203-7.53,6.407-15.061,9.61-22.59
		c0.304,0.128,0.608,0.255,0.912,0.384c-3.132,7.572-6.264,15.145-9.397,22.718C119.646,492.779,119.271,492.609,118.896,492.438z"
		/>
	<path fill-rule="evenodd" clip-rule="evenodd" fill="#FFFFFF" d="M154.064,493.599c-7.51,3.24-15.021,6.481-22.531,9.722
		c-0.148-0.341-0.295-0.682-0.443-1.022c7.504-3.269,15.008-6.537,22.512-9.805C153.756,492.861,153.91,493.229,154.064,493.599z"/>
	<path fill-rule="evenodd" clip-rule="evenodd" fill="#FFFFFF" d="M98.094,474.401c2.597,6.129,5.194,12.258,7.792,18.388
		c-0.294,0.119-0.588,0.239-0.881,0.359c-2.595-6.13-5.19-12.26-7.785-18.389C97.511,474.64,97.803,474.521,98.094,474.401z"/>
	<path fill-rule="evenodd" clip-rule="evenodd" fill="#FFFFFF" d="M144.843,517.812c-3.773-1.008-7.546-2.016-11.32-3.023
		c0.095-0.363,0.189-0.727,0.284-1.091c3.768,1.031,7.534,2.062,11.302,3.094C145.021,517.132,144.932,517.473,144.843,517.812z"/>
	<path fill-rule="evenodd" clip-rule="evenodd" fill="#FFFFFF" d="M129.203,498.844c3.069-1.985,6.139-3.97,9.208-5.955
		c0.196,0.299,0.392,0.599,0.588,0.897c-3.057,2.015-6.113,4.029-9.169,6.044C129.621,499.501,129.412,499.173,129.203,498.844z"/>
	<path fill-rule="evenodd" clip-rule="evenodd" fill="#FFFFFF" d="M140.063,529.667c-3.096-2.057-6.192-4.112-9.289-6.168
		c0.182-0.279,0.363-0.56,0.544-0.839c3.132,2.031,6.263,4.062,9.396,6.092C140.497,529.057,140.28,529.362,140.063,529.667z"/>
	<path fill-rule="evenodd" clip-rule="evenodd" fill="#FFFFFF" d="M130.109,485.362c-2.133,3.158-4.266,6.315-6.398,9.474
		c-0.248-0.163-0.495-0.325-0.743-0.487c2.133-3.199,4.265-6.397,6.397-9.596C129.613,484.956,129.862,485.159,130.109,485.362z"/>
	<path fill-rule="evenodd" clip-rule="evenodd" fill="#FFFFFF" d="M132.909,505.92c3.497-0.687,6.994-1.373,10.49-2.06
		c0.066,0.311,0.131,0.62,0.197,0.931c-3.469,0.746-6.938,1.493-10.408,2.24C133.096,506.661,133.002,506.291,132.909,505.92z"/>
	<path fill-rule="evenodd" clip-rule="evenodd" fill="#FFFFFF" d="M88.796,529.986c2.541-1.837,5.081-3.674,7.622-5.51
		c0.202,0.268,0.404,0.535,0.606,0.803c-2.495,1.877-4.99,3.754-7.486,5.63C89.291,530.602,89.043,530.294,88.796,529.986z"/>
	<path fill-rule="evenodd" clip-rule="evenodd" fill="#FFFFFF" d="M118.798,532.242c0.786,3.199,1.573,6.397,2.359,9.596
		c-0.313,0.076-0.626,0.152-0.939,0.229c-0.753-3.207-1.506-6.414-2.259-9.621C118.238,532.378,118.519,532.311,118.798,532.242z"/>
	<path fill-rule="evenodd" clip-rule="evenodd" fill="#FFFFFF" d="M101.647,494.941c-2.055-3.015-4.111-6.028-6.166-9.043
		c0.229-0.163,0.458-0.325,0.688-0.487c2.052,3.014,4.105,6.027,6.158,9.042C102.1,494.616,101.873,494.778,101.647,494.941z"/>
</g>
<path fill-rule="evenodd" clip-rule="evenodd" fill="#FFFFFF" d="M363.476,687.104c-3.397-2.5-6.514-4.793-9.631-7.087
	c0.031-0.246,0.062-0.491,0.094-0.736c3.049,0,6.12-0.226,9.141,0.066c2.703,0.262,3.871-0.888,4.676-3.235
	c0.873-2.541,2.067-4.971,3.411-8.13c1.102,3.426,2.067,6.225,2.892,9.064c0.504,1.732,1.37,2.35,3.268,2.191
	c2.851-0.238,5.736-0.062,8.803,0.677c-2.287,1.532-4.53,3.138-6.878,4.571c-1.467,0.896-1.732,1.877-1.201,3.491
	c1.169,3.544,2.136,7.155,3.424,11.559c-4.272-3.106-7.826-5.689-11.485-8.35c-3.648,2.6-7.155,5.097-11.398,8.119
	C360.4,694.782,361.924,690.979,363.476,687.104z"/>
<path fill-rule="evenodd" clip-rule="evenodd" fill="#FFFFFF" d="M353.67,761.356c3.28-2.672,6.561-5.345,9.841-8.017
	c0.208,0.249,0.416,0.498,0.623,0.747c-3.229,2.695-6.46,5.391-9.689,8.086C354.187,761.9,353.928,761.628,353.67,761.356z"/>
<path fill-rule="evenodd" clip-rule="evenodd" fill="#FFFFFF" d="M331.245,752.988c3.213,3.072,6.426,6.146,8.398,8.034
	c-2.029-1.823-5.336-4.792-8.643-7.761C331.082,753.171,331.164,753.079,331.245,752.988z"/>
<path fill-rule="evenodd" clip-rule="evenodd" fill="#FFFFFF" d="M81.288,324.449c-9.851-7.251-19.336-14.233-29.021-21.362
	c-9.71,6.989-19.233,13.843-29.375,21.143c4.517-10.925,8.778-21.233,12.975-31.386c-8.785-6.406-17.442-12.718-26.099-19.03
	c0.118-0.345,0.235-0.689,0.353-1.035c2.513,0,5.026-0.015,7.539,0.003c7.792,0.055,15.583,0.186,23.373,0.103
	c0.923-0.01,2.302-0.963,2.676-1.824c3.573-8.208,6.971-16.493,10.435-24.749c0.2-0.477,0.539-0.897,1.331-2.186
	c1.023,3.155,1.834,5.615,2.618,8.083c1.958,6.165,3.945,12.321,5.828,18.509c0.573,1.883,1.517,2.327,3.524,2.286
	c8.925-0.18,17.855-0.078,27.503-0.078c-0.99,0.942-1.478,1.555-2.097,1.972c-6.45,4.352-12.869,8.753-19.417,12.955
	c-2.024,1.299-2.241,2.451-1.508,4.693c3.286,10.04,6.317,20.164,9.424,30.263C81.434,323.085,81.333,323.42,81.288,324.449z"/>
<path fill-rule="evenodd" clip-rule="evenodd" fill="#FFFFFF" d="M107.337,86.46c0.329,1.358,0.908,2.71,0.942,4.076
	c0.138,5.382,3.134,7.67,8.162,8.123c1.464,0.132,2.887,0.713,5.272,1.334c-3.623,1.048-6.299,1.981-9.05,2.569
	c-2.386,0.51-3.352,1.952-3.78,4.151c-0.501,2.573-1.15,5.116-2.416,7.613c-0.721-2.978-1.28-6.009-2.243-8.906
	c-0.36-1.084-1.494-2.288-2.557-2.69c-2.689-1.016-5.538-1.607-9.228-2.617c3.639-0.934,6.31-1.82,9.052-2.26
	c2.125-0.34,2.862-1.518,3.259-3.366c0.582-2.711,1.282-5.398,1.932-8.095C106.901,86.415,107.119,86.438,107.337,86.46z"/>
<path fill-rule="evenodd" clip-rule="evenodd" fill="#FFFFFF" d="M145.8,25.5c-1.676-1.689-3.352-3.378-5.027-5.067
	c-0.379,0.486-0.758,0.972-1.137,1.458c1.568-2.105,3.136-4.21,4.578-6.146c1.442,1.751,3.146,3.821,4.713,5.724
	c-1.363,1.612-2.972,3.513-4.58,5.414C144.831,26.42,145.315,25.96,145.8,25.5z"/>
<path fill-rule="evenodd" clip-rule="evenodd" fill="#FFFFFF" d="M223.015,646.307c-1.307-1.414-2.828-3.059-4.406-4.766
	c1.139-1.459,2.611-3.348,4.084-5.235c1.385,1.651,2.881,3.438,4.238,5.059C225.647,642.982,224.217,644.789,223.015,646.307z"/>
<path fill-rule="evenodd" clip-rule="evenodd" fill="#FFFFFF" d="M222.074,342.916c-1.307-1.414-2.828-3.059-4.406-4.766
	c1.139-1.459,2.611-3.348,4.084-5.235c1.385,1.651,2.881,3.438,4.238,5.059C224.707,339.592,223.276,341.398,222.074,342.916z"/>
<path fill-rule="evenodd" clip-rule="evenodd" fill="#FFFFFF" d="M221.833,39.836c-1.307-1.414-2.828-3.059-4.406-4.766
	c1.139-1.459,2.611-3.348,4.084-5.235c1.385,1.651,2.881,3.438,4.238,5.059C224.466,36.512,223.035,38.319,221.833,39.836z"/>
<g>
	<path fill="#FFFFFF" d="M155.626,247.12c0.234-0.303,0.467-0.607,0.7-0.911c-9.341-7.716-18.682-15.431-28.023-23.146
		c-0.25,0.302-0.499,0.604-0.748,0.906C136.912,231.686,146.269,239.403,155.626,247.12z"/>
	<path fill="#FFFFFF" d="M151.444,170.446c-0.293-0.28-0.587-0.561-0.881-0.84c-8.233,7.939-16.467,15.879-24.701,23.819
		c0.287,0.299,0.573,0.598,0.86,0.896C134.962,186.363,143.203,178.404,151.444,170.446z"/>
	<path fill="#FFFFFF" d="M172.294,208.411c0.041-0.312,0.081-0.623,0.123-0.934c-13.025,0-26.05,0-39.076,0
		c0,0.312-0.002,0.623-0.002,0.934C146.324,208.411,159.309,208.411,172.294,208.411z"/>
	<path fill="#FFFFFF" d="M161.559,227.832c0.129-0.344,0.257-0.687,0.385-1.031c-9.865-3.822-19.731-7.645-29.597-11.467
		c-0.142,0.365-0.283,0.729-0.425,1.094C141.801,220.229,151.68,224.03,161.559,227.832z"/>
	<path fill="#FFFFFF" d="M122.92,227.207c-0.36,0.169-0.721,0.339-1.082,0.508c4.112,8.65,8.223,17.301,12.335,25.951
		c0.31-0.146,0.619-0.292,0.928-0.438C131.042,244.554,126.981,235.88,122.92,227.207z"/>
	<path fill="#FFFFFF" d="M131.105,199.358c0.144,0.366,0.288,0.732,0.431,1.099c7.521-3.259,15.041-6.518,22.561-9.776
		c-0.158-0.366-0.316-0.731-0.473-1.097C146.117,192.842,138.611,196.1,131.105,199.358z"/>
	<path fill="#FFFFFF" d="M137.669,210.739c0.032-0.207,0.064-0.414,0.097-0.621c-1.413-0.21-2.826-0.42-4.329-0.644
		c0.231,1.147,0.216,2.434,0.552,2.533c3.592,1.06,7.24,1.933,10.873,2.856c0.083-0.316,0.168-0.632,0.252-0.949
		c-2.979-0.854-5.96-1.708-9.362-2.683C136.707,210.986,137.188,210.862,137.669,210.739z"/>
	<path fill="#FFFFFF" d="M129.158,195.989c0.235,0.319,0.47,0.638,0.705,0.958c3.042-2.04,6.083-4.079,9.124-6.118
		c-0.196-0.292-0.392-0.584-0.588-0.877C135.318,191.964,132.238,193.977,129.158,195.989z"/>
	<path fill="#FFFFFF" d="M131.363,219.76c-0.188,0.308-0.377,0.616-0.565,0.924c3.114,2.029,6.229,4.059,9.343,6.087
		c0.191-0.299,0.382-0.599,0.573-0.898C137.597,223.835,134.48,221.798,131.363,219.76z"/>
	<path fill="#FFFFFF" d="M143.62,201.894c-0.111-0.344-0.222-0.688-0.333-1.033c-3.451,0.768-6.901,1.535-10.352,2.303
		c0.081,0.329,0.161,0.659,0.241,0.988C136.657,203.398,140.139,202.646,143.62,201.894z"/>
	<path fill="#FFFFFF" d="M118.839,229.371c-0.308,0.083-0.616,0.165-0.925,0.248c0.785,3.187,1.57,6.374,2.355,9.561
		c0.298-0.074,0.596-0.148,0.893-0.222C120.388,235.763,119.614,232.567,118.839,229.371z"/>
	<path fill-rule="evenodd" clip-rule="evenodd" fill="#FFFFFF" d="M155.626,247.12c-9.357-7.717-18.714-15.434-28.071-23.151
		c0.249-0.302,0.499-0.604,0.748-0.906c9.341,7.715,18.682,15.431,28.023,23.146C156.093,246.513,155.86,246.817,155.626,247.12z"/>
	<path fill-rule="evenodd" clip-rule="evenodd" fill="#FFFFFF" d="M151.444,170.446c-8.241,7.958-16.482,15.917-24.722,23.875
		c-0.287-0.299-0.573-0.598-0.86-0.896c8.234-7.939,16.467-15.879,24.701-23.819C150.856,169.886,151.15,170.166,151.444,170.446z"
		/>
	<path fill-rule="evenodd" clip-rule="evenodd" fill="#FFFFFF" d="M172.294,208.411c-12.985,0-25.971,0-38.956,0
		c0-0.312,0.002-0.623,0.002-0.934c13.025,0,26.05,0,39.076,0C172.375,207.789,172.335,208.1,172.294,208.411z"/>
	<path fill-rule="evenodd" clip-rule="evenodd" fill="#FFFFFF" d="M161.559,227.832c-9.879-3.801-19.758-7.603-29.637-11.404
		c0.142-0.365,0.283-0.729,0.425-1.094c9.866,3.822,19.732,7.645,29.597,11.467C161.816,227.145,161.688,227.488,161.559,227.832z"
		/>
	<path fill-rule="evenodd" clip-rule="evenodd" fill="#FFFFFF" d="M122.92,227.207c4.061,8.674,8.121,17.348,12.182,26.021
		c-0.309,0.146-0.619,0.292-0.928,0.438c-4.112-8.65-8.223-17.3-12.335-25.951C122.199,227.545,122.56,227.376,122.92,227.207z"/>
	<path fill-rule="evenodd" clip-rule="evenodd" fill="#FFFFFF" d="M131.105,199.358c7.506-3.258,15.012-6.516,22.519-9.774
		c0.157,0.366,0.315,0.731,0.473,1.097c-7.52,3.258-15.041,6.517-22.561,9.776C131.393,200.09,131.249,199.724,131.105,199.358z"/>
	<path fill-rule="evenodd" clip-rule="evenodd" fill="#FFFFFF" d="M137.669,210.739c-0.481,0.124-0.962,0.247-1.918,0.493
		c3.402,0.975,6.383,1.829,9.362,2.683c-0.084,0.316-0.168,0.633-0.252,0.949c-3.633-0.924-7.28-1.796-10.873-2.856
		c-0.335-0.099-0.321-1.385-0.552-2.533c1.503,0.224,2.917,0.434,4.329,0.644C137.734,210.325,137.702,210.532,137.669,210.739z"/>
	<path fill-rule="evenodd" clip-rule="evenodd" fill="#FFFFFF" d="M129.158,195.989c3.08-2.012,6.16-4.025,9.24-6.038
		c0.196,0.292,0.392,0.585,0.588,0.877c-3.041,2.039-6.082,4.079-9.124,6.118C129.628,196.627,129.393,196.308,129.158,195.989z"/>
	<path fill-rule="evenodd" clip-rule="evenodd" fill="#FFFFFF" d="M131.363,219.76c3.117,2.038,6.233,4.075,9.35,6.113
		c-0.191,0.3-0.382,0.599-0.573,0.898c-3.114-2.029-6.229-4.058-9.343-6.087C130.986,220.376,131.175,220.068,131.363,219.76z"/>
	<path fill-rule="evenodd" clip-rule="evenodd" fill="#FFFFFF" d="M143.62,201.894c-3.481,0.752-6.963,1.505-10.444,2.258
		c-0.081-0.329-0.161-0.659-0.241-0.988c3.451-0.768,6.901-1.535,10.352-2.303C143.398,201.205,143.509,201.549,143.62,201.894z"/>
	<path fill-rule="evenodd" clip-rule="evenodd" fill="#FFFFFF" d="M118.839,229.371c0.775,3.196,1.549,6.392,2.324,9.587
		c-0.297,0.074-0.595,0.148-0.893,0.222c-0.785-3.187-1.57-6.374-2.355-9.561C118.223,229.536,118.531,229.454,118.839,229.371z"/>
	<path fill-rule="evenodd" clip-rule="evenodd" fill="#FFFFFF" d="M103.084,194.255c7.733-2.389,13.498,0.08,17.381,6.284
		c3.368,5.38,3.445,11.376-0.37,16.517c-4.39,5.917-10.531,6.515-17.699,3.05c4.32,5.563,15.403,5.725,21.598,1.043
		c6.824-5.157,7.826-15.615,2.273-23.029C121.482,191.729,110.045,188.637,103.084,194.255z"/>
</g>
<g>
	<path fill="#FFFFFF" d="M441.469,601.511c0.234-0.304,0.467-0.607,0.699-0.911c-9.34-7.716-18.682-15.432-28.022-23.146
		c-0.25,0.303-0.499,0.604-0.748,0.906C422.755,586.076,432.111,593.794,441.469,601.511z"/>
	<path fill="#FFFFFF" d="M437.287,524.837c-0.294-0.28-0.588-0.561-0.882-0.841c-8.233,7.939-16.467,15.88-24.701,23.819
		c0.287,0.299,0.574,0.598,0.86,0.896C420.805,540.754,429.046,532.795,437.287,524.837z"/>
	<path fill="#FFFFFF" d="M458.137,562.802c0.041-0.312,0.082-0.622,0.123-0.935c-13.025,0-26.051,0-39.075,0
		c-0.001,0.312-0.002,0.623-0.003,0.935C432.166,562.802,445.152,562.802,458.137,562.802z"/>
	<path fill="#FFFFFF" d="M447.401,582.223c0.129-0.344,0.257-0.688,0.386-1.031c-9.865-3.822-19.732-7.645-29.598-11.467
		c-0.142,0.365-0.283,0.729-0.425,1.094C427.644,574.619,437.522,578.421,447.401,582.223z"/>
	<path fill="#FFFFFF" d="M408.763,581.598c-0.359,0.169-0.721,0.338-1.081,0.508c4.112,8.65,8.224,17.301,12.335,25.951
		c0.31-0.146,0.619-0.293,0.929-0.438C416.884,598.945,412.823,590.271,408.763,581.598z"/>
	<path fill="#FFFFFF" d="M416.948,553.748c0.143,0.367,0.287,0.732,0.431,1.1c7.521-3.26,15.041-6.518,22.561-9.776
		c-0.157-0.366-0.315-0.731-0.473-1.097C431.96,547.232,424.454,550.49,416.948,553.748z"/>
	<path fill="#FFFFFF" d="M423.512,565.129c0.033-0.207,0.064-0.413,0.098-0.62c-1.412-0.21-2.826-0.421-4.329-0.644
		c0.23,1.146,0.217,2.434,0.552,2.532c3.592,1.06,7.24,1.933,10.873,2.856c0.083-0.316,0.168-0.633,0.252-0.949
		c-2.98-0.854-5.961-1.707-9.363-2.683C422.55,565.377,423.031,565.253,423.512,565.129z"/>
	<path fill="#FFFFFF" d="M415.001,550.38c0.234,0.319,0.47,0.638,0.705,0.958c3.041-2.04,6.082-4.08,9.123-6.119
		c-0.196-0.291-0.392-0.584-0.589-0.877C421.16,546.355,418.081,548.367,415.001,550.38z"/>
	<path fill="#FFFFFF" d="M417.206,574.15c-0.188,0.309-0.377,0.617-0.565,0.924c3.114,2.029,6.229,4.059,9.343,6.088
		c0.19-0.299,0.382-0.599,0.573-0.898C423.439,578.227,420.323,576.188,417.206,574.15z"/>
	<path fill="#FFFFFF" d="M429.463,556.284c-0.111-0.345-0.223-0.688-0.333-1.032c-3.45,0.768-6.901,1.535-10.352,2.303
		c0.08,0.328,0.16,0.658,0.24,0.987C422.5,557.789,425.982,557.037,429.463,556.284z"/>
	<path fill="#FFFFFF" d="M404.682,583.762c-0.308,0.082-0.616,0.165-0.925,0.248c0.785,3.187,1.57,6.373,2.355,9.561
		c0.298-0.074,0.596-0.148,0.893-0.222C406.231,590.153,405.456,586.957,404.682,583.762z"/>
	<path fill-rule="evenodd" clip-rule="evenodd" fill="#FFFFFF" d="M441.469,601.511c-9.357-7.717-18.714-15.435-28.071-23.151
		c0.249-0.303,0.498-0.604,0.748-0.906c9.341,7.715,18.683,15.431,28.022,23.146C441.936,600.903,441.703,601.207,441.469,601.511z"
		/>
	<path fill-rule="evenodd" clip-rule="evenodd" fill="#FFFFFF" d="M437.287,524.837c-8.241,7.958-16.482,15.917-24.723,23.875
		c-0.286-0.299-0.573-0.598-0.86-0.896c8.234-7.939,16.468-15.88,24.701-23.819C436.699,524.276,436.993,524.557,437.287,524.837z"
		/>
	<path fill-rule="evenodd" clip-rule="evenodd" fill="#FFFFFF" d="M458.137,562.802c-12.984,0-25.971,0-38.955,0
		c0.001-0.312,0.002-0.622,0.003-0.935c13.024,0,26.05,0,39.075,0C458.219,562.18,458.178,562.49,458.137,562.802z"/>
	<path fill-rule="evenodd" clip-rule="evenodd" fill="#FFFFFF" d="M447.401,582.223c-9.879-3.802-19.758-7.604-29.637-11.404
		c0.142-0.365,0.283-0.729,0.425-1.094c9.865,3.822,19.732,7.645,29.598,11.467C447.658,581.535,447.53,581.879,447.401,582.223z"/>
	<path fill-rule="evenodd" clip-rule="evenodd" fill="#FFFFFF" d="M408.763,581.598c4.061,8.674,8.121,17.348,12.183,26.021
		c-0.31,0.146-0.619,0.292-0.929,0.438c-4.111-8.65-8.223-17.301-12.335-25.951C408.042,581.936,408.403,581.767,408.763,581.598z"
		/>
	<path fill-rule="evenodd" clip-rule="evenodd" fill="#FFFFFF" d="M416.948,553.748c7.506-3.258,15.012-6.516,22.519-9.773
		c0.157,0.365,0.315,0.73,0.473,1.097c-7.52,3.259-15.04,6.517-22.561,9.776C417.235,554.48,417.091,554.115,416.948,553.748z"/>
	<path fill-rule="evenodd" clip-rule="evenodd" fill="#FFFFFF" d="M423.512,565.129c-0.48,0.124-0.962,0.248-1.918,0.493
		c3.402,0.976,6.383,1.829,9.363,2.683c-0.084,0.316-0.169,0.633-0.252,0.949c-3.633-0.924-7.281-1.797-10.873-2.856
		c-0.335-0.099-0.321-1.386-0.552-2.532c1.503,0.223,2.917,0.434,4.329,0.644C423.576,564.716,423.545,564.922,423.512,565.129z"/>
	<path fill-rule="evenodd" clip-rule="evenodd" fill="#FFFFFF" d="M415.001,550.38c3.08-2.013,6.159-4.024,9.239-6.038
		c0.197,0.293,0.393,0.586,0.589,0.877c-3.041,2.039-6.082,4.079-9.123,6.119C415.471,551.018,415.235,550.699,415.001,550.38z"/>
	<path fill-rule="evenodd" clip-rule="evenodd" fill="#FFFFFF" d="M417.206,574.15c3.117,2.038,6.233,4.076,9.351,6.113
		c-0.191,0.3-0.383,0.6-0.573,0.898c-3.114-2.029-6.229-4.059-9.343-6.088C416.829,574.768,417.018,574.459,417.206,574.15z"/>
	<path fill-rule="evenodd" clip-rule="evenodd" fill="#FFFFFF" d="M429.463,556.284c-3.48,0.753-6.963,1.505-10.444,2.258
		c-0.08-0.329-0.16-0.659-0.24-0.987c3.45-0.768,6.901-1.535,10.352-2.303C429.24,555.596,429.352,555.939,429.463,556.284z"/>
	<path fill-rule="evenodd" clip-rule="evenodd" fill="#FFFFFF" d="M404.682,583.762c0.774,3.195,1.55,6.392,2.323,9.587
		c-0.297,0.073-0.595,0.147-0.893,0.222c-0.785-3.188-1.57-6.374-2.355-9.561C404.065,583.927,404.374,583.844,404.682,583.762z"/>
	<path fill-rule="evenodd" clip-rule="evenodd" fill="#FFFFFF" d="M388.927,548.646c7.733-2.389,13.498,0.08,17.381,6.284
		c3.368,5.38,3.445,11.376-0.369,16.517c-4.391,5.917-10.531,6.515-17.699,3.05c4.32,5.563,15.402,5.725,21.598,1.043
		c6.824-5.157,7.826-15.615,2.273-23.029C407.325,546.12,395.888,543.027,388.927,548.646z"/>
</g>
<path fill-rule="evenodd" clip-rule="evenodd" fill="#FFFFFF" d="M447.442,368.515c0.33,1.358,0.908,2.71,0.943,4.076
	c0.137,5.382,3.133,7.67,8.162,8.123c1.463,0.132,2.887,0.713,5.271,1.334c-3.623,1.048-6.299,1.981-9.049,2.569
	c-2.387,0.51-3.352,1.952-3.78,4.15c-0.501,2.573-1.15,5.117-2.416,7.613c-0.721-2.979-1.28-6.01-2.243-8.906
	c-0.36-1.084-1.494-2.288-2.557-2.69c-2.689-1.016-5.539-1.607-9.229-2.617c3.639-0.934,6.311-1.82,9.053-2.26
	c2.124-0.34,2.861-1.518,3.258-3.366c0.582-2.711,1.283-5.398,1.932-8.095C447.007,368.47,447.225,368.492,447.442,368.515z"/>
</svg>
